<svg width="20" height="20" viewBox="0 0 20 20" fill="none" xmlns="http://www.w3.org/2000/svg">
<path d="M8.44072 7.49995V13.1074C8.44721 13.5183 8.615 13.9101 8.90787 14.1984C9.20073 14.4867 9.59521 14.6483 10.0062 14.6483C10.4171 14.6483 10.8116 14.4867 11.1044 14.1984C11.3973 13.9101 11.5651 13.5183 11.5716 13.1074L11.5767 5.74213C11.5809 5.39093 11.5154 5.04238 11.384 4.71668C11.2525 4.39098 11.0577 4.09462 10.8109 3.84476C10.5641 3.5949 10.2701 3.39653 9.94599 3.26114C9.62191 3.12575 9.27417 3.05603 8.92295 3.05603C8.57172 3.05603 8.22399 3.12575 7.89991 3.26114C7.57583 3.39653 7.28185 3.5949 7.035 3.84476C6.78816 4.09462 6.59337 4.39098 6.46192 4.71668C6.33047 5.04238 6.26498 5.39093 6.26924 5.74213V13.157C6.28342 14.137 6.68269 15.0721 7.38075 15.7601C8.0788 16.4482 9.01957 16.8339 9.99971 16.8339C10.9798 16.8339 11.9206 16.4482 12.6187 15.7601C13.3167 15.0721 13.716 14.137 13.7302 13.157V6.22807" stroke="#26292B" stroke-opacity="0.75" stroke-miterlimit="10" stroke-linecap="square"/>
</svg>
