<svg width="212" height="212" viewBox="0 0 212 212" fill="none" xmlns="http://www.w3.org/2000/svg">
<path fill-rule="evenodd" clip-rule="evenodd" d="M97.5295 3.44841C99.7382 1.24039 102.733 0 105.857 0C108.98 0 111.975 1.24039 114.184 3.44841L184.851 74.1159L208.407 97.6718C210.552 99.8931 211.739 102.868 211.713 105.956C211.686 109.044 210.447 111.999 208.263 114.182C206.08 116.366 203.126 117.605 200.037 117.631C196.949 117.658 193.974 116.471 191.753 114.326L188.302 110.875V188.444C188.302 194.692 185.82 200.683 181.403 205.101C176.985 209.518 170.994 212 164.746 212H129.412C126.289 212 123.293 210.759 121.084 208.55C118.875 206.342 117.634 203.346 117.634 200.222V164.888H94.0786V200.222C94.0786 203.346 92.8377 206.342 90.6289 208.55C88.4202 210.759 85.4244 212 82.3007 212H46.9669C40.7195 212 34.728 209.518 30.3105 205.101C25.8929 200.683 23.4111 194.692 23.4111 188.444V110.875L19.9602 114.326C17.7388 116.471 14.7637 117.658 11.6756 117.631C8.58744 117.605 5.63339 116.366 3.44967 114.182C1.26595 111.999 0.0272803 109.044 0.000445236 105.956C-0.0263898 102.868 1.16076 99.8931 3.3062 97.6718L26.862 74.1159L97.5295 3.44841Z" fill="#01A6FB" fill-opacity="0.1"/>
<path fill-rule="evenodd" clip-rule="evenodd" d="M106 116.503C115.586 116.503 123.377 108.732 123.377 99.1262C123.377 89.5207 115.605 81.7495 106 81.7495C96.3945 81.7495 88.6233 89.5207 88.6233 99.1262C88.6233 108.732 96.4142 116.503 106 116.503ZM114.895 89.639C116 89.4418 117.026 90.2702 117.065 91.3944C117.203 95.9309 116.454 106.168 107.578 110.349C106.572 110.822 105.408 110.822 104.402 110.349C95.5464 106.168 94.7968 95.9309 94.9349 91.3944C94.9744 90.2702 96 89.4418 97.1045 89.639C101.108 90.3293 103.535 89.067 104.817 87.9625C105.487 87.3708 106.493 87.3708 107.183 87.9625C108.465 89.067 110.891 90.3491 114.895 89.639ZM65.4872 115.714L85.6253 135.852L97.2229 124.254C99.57 121.907 102.686 120.625 106 120.625C109.314 120.625 112.43 121.907 114.777 124.254L126.316 135.793L146.611 115.517V88.0611C146.611 82.3017 141.937 77.6272 136.177 77.6272H75.9212C70.1618 77.6272 65.4872 82.3017 65.4872 88.0611V115.714ZM106 118.475C95.3294 118.475 86.6509 109.797 86.6509 99.1262C86.6509 88.4556 95.3294 79.7771 106 79.7771C116.671 79.7771 125.349 88.4556 125.349 99.1262C125.349 109.797 116.671 118.475 106 118.475ZM98.6233 69.0473C102.706 64.9842 109.294 64.9842 113.357 69.0473C113.357 69.0473 119.984 75.6548 119.964 75.6351H91.9961L98.6233 69.0473ZM153.258 108.83L148.564 113.525V104.136L153.258 108.83ZM57.3413 156.562V110.349L84.2446 137.233L59.1165 162.361C57.9922 160.704 57.3413 158.712 57.3413 156.562ZM63.5149 104.057V113.742L58.722 108.949L58.6628 108.889L63.5149 104.057ZM152.884 162.38L127.696 137.193L154.659 110.231V156.582C154.659 158.732 154.008 160.724 152.884 162.38ZM60.3591 163.899L98.6233 125.635C102.706 121.572 109.294 121.572 113.377 125.615L151.641 163.879C150.004 165.556 147.795 166.661 145.349 166.917L67.4005 166.976C64.6391 166.878 62.1736 165.714 60.3591 163.899Z" fill="#01A6FB"/>
<path d="M112.055 95.5167L108.446 99.1262L112.055 102.736C112.726 103.406 112.726 104.511 112.055 105.201C111.385 105.891 110.28 105.872 109.59 105.201L106 101.572L102.391 105.181C101.72 105.852 100.615 105.852 99.925 105.181C99.2347 104.511 99.2544 103.406 99.925 102.716L103.535 99.1064L99.925 95.497C99.2544 94.8264 99.2544 93.7218 99.925 93.0315C100.596 92.3412 101.7 92.3609 102.391 93.0315L106 96.641L109.609 93.0315C110.28 92.3609 111.385 92.3609 112.075 93.0315C112.765 93.7021 112.746 94.8461 112.055 95.5167Z" fill="#E30404"/>
</svg>
