<svg width="122" height="122" viewBox="0 0 122 122" fill="none" xmlns="http://www.w3.org/2000/svg">
<path fill-rule="evenodd" clip-rule="evenodd" d="M61 71.5029C70.5858 71.5029 78.3767 63.7317 78.3767 54.1262C78.3767 44.5207 70.6055 36.7495 61 36.7495C51.3945 36.7495 43.6233 44.5207 43.6233 54.1262C43.6233 63.7317 51.4142 71.5029 61 71.5029ZM69.8954 44.639C71 44.4418 72.0256 45.2702 72.0651 46.3944C72.2031 50.9309 71.4536 61.1676 62.5779 65.349C61.572 65.8224 60.4083 65.8224 59.4024 65.349C50.5464 61.1676 49.7968 50.9309 49.9349 46.3944C49.9744 45.2702 51 44.4418 52.1045 44.639C56.1085 45.3293 58.5345 44.067 59.8166 42.9625C60.4872 42.3708 61.4931 42.3708 62.1834 42.9625C63.4655 44.067 65.8915 45.3491 69.8954 44.639ZM20.4872 70.7139L40.6253 90.8519L52.2229 79.2543C54.57 76.9072 57.6864 75.6251 61 75.6251C64.3136 75.6251 67.43 76.9072 69.7771 79.2543L81.3155 90.7928L101.611 70.5167V43.0611C101.611 37.3017 96.9368 32.6272 91.1774 32.6272H30.9212C25.1618 32.6272 20.4872 37.3017 20.4872 43.0611V70.7139ZM61 73.4752C50.3294 73.4752 41.6509 64.7968 41.6509 54.1262C41.6509 43.4556 50.3294 34.7771 61 34.7771C71.6706 34.7771 80.3491 43.4556 80.3491 54.1262C80.3491 64.7968 71.6706 73.4752 61 73.4752ZM53.6233 24.0473C57.7061 19.9842 64.2939 19.9842 68.357 24.0473C68.357 24.0473 74.9842 30.6548 74.9645 30.6351H46.9961L53.6233 24.0473ZM108.258 63.8303L103.564 68.5246V59.136L108.258 63.8303ZM12.3413 111.562V65.349L39.2446 92.2326L14.1165 117.361C12.9922 115.704 12.3413 113.712 12.3413 111.562ZM18.5149 59.0571V68.7415L13.722 63.9486L13.6628 63.8895L18.5149 59.0571ZM107.884 117.38L82.6962 92.1932L109.659 65.2307V111.582C109.659 113.732 109.008 115.724 107.884 117.38ZM15.3591 118.899L53.6233 80.635C57.7061 76.5719 64.2939 76.5719 68.3767 80.6153L106.641 118.879C105.004 120.556 102.795 121.661 100.349 121.917L22.4005 121.976C19.6391 121.878 17.1736 120.714 15.3591 118.899Z" fill="#01A6FB"/>
<path d="M67.0552 50.5167L63.4457 54.1262L67.0552 57.7356C67.7258 58.4062 67.7258 59.5108 67.0552 60.2011C66.3846 60.8914 65.2801 60.8717 64.5897 60.2011L61 56.5719L57.3905 60.1814C56.7199 60.852 55.6154 60.852 54.925 60.1814C54.2347 59.5108 54.2544 58.4062 54.925 57.7159L58.5345 54.1064L54.925 50.497C54.2544 49.8264 54.2544 48.7218 54.925 48.0315C55.5957 47.3412 56.7002 47.3609 57.3905 48.0315L61 51.641L64.6094 48.0315C65.2801 47.3609 66.3846 47.3609 67.0749 48.0315C67.7653 48.7021 67.7455 49.8461 67.0552 50.5167Z" fill="#E30404"/>
</svg>
