<svg width="258" height="258" viewBox="0 0 258 258" fill="none" xmlns="http://www.w3.org/2000/svg">
<path fill-rule="evenodd" clip-rule="evenodd" d="M118.723 4.19665C121.411 1.50954 125.056 0 128.857 0C132.657 0 136.303 1.50954 138.99 4.19665L224.991 90.1977L253.658 118.865C256.269 121.568 257.714 125.189 257.681 128.947C257.649 132.705 256.141 136.3 253.484 138.958C250.826 141.615 247.231 143.123 243.473 143.155C239.715 143.188 236.094 141.743 233.391 139.132L229.191 134.933V229.333C229.191 236.936 226.171 244.228 220.795 249.604C215.419 254.98 208.127 258 200.524 258H157.524C153.722 258 150.076 256.49 147.388 253.802C144.7 251.114 143.19 247.468 143.19 243.667V200.666H114.523V243.667C114.523 247.468 113.013 251.114 110.325 253.802C107.637 256.49 103.991 258 100.19 258H57.1891C49.5862 258 42.2946 254.98 36.9185 249.604C31.5424 244.228 28.5221 236.936 28.5221 229.333V134.933L24.3224 139.132C21.6191 141.743 17.9984 143.188 14.2402 143.155C10.482 143.123 6.88698 141.615 4.22944 138.958C1.57189 136.3 0.0644496 132.705 0.0317918 128.947C-0.000865888 125.189 1.44387 121.568 4.05483 118.865L32.7218 90.1977L118.723 4.19665Z" fill="#FF8732" fill-opacity="0.07"/>
</svg>
