<svg width="24" height="24" viewBox="0 0 24 24" fill="none" xmlns="http://www.w3.org/2000/svg">
<g clip-path="url(#clip0_877_890)">
<path d="M23.2425 11.8485C23.2425 5.58928 18.1683 0.515137 11.9091 0.515137C5.64995 0.515137 0.575806 5.58928 0.575806 11.8485C0.575806 17.5052 4.72026 22.1939 10.1383 23.0441V15.1245H7.2607V11.8485H10.1383V9.3516C10.1383 6.51118 11.8303 4.94222 14.4191 4.94222C15.6591 4.94222 16.956 5.16357 16.956 5.16357V7.95264H15.527C14.1191 7.95264 13.68 8.82628 13.68 9.72258V11.8485H16.8232L16.3207 15.1245H13.68V23.0441C19.098 22.1939 23.2425 17.5053 23.2425 11.8485Z" fill="#1877F2"/>
<path d="M16.3206 15.1247L16.8231 11.8486H13.6799V9.72275C13.6799 8.82635 14.119 7.9528 15.5269 7.9528H16.9559V5.16374C16.9559 5.16374 15.659 4.94238 14.4189 4.94238C11.8303 4.94238 10.1382 6.51134 10.1382 9.35176V11.8486H7.26062V15.1247H10.1382V23.0443C10.724 23.1361 11.3161 23.1821 11.9091 23.182C12.502 23.1821 13.0941 23.1361 13.6799 23.0443V15.1247H16.3206Z" fill="white"/>
</g>
<defs>
<clipPath id="clip0_877_890">
<rect width="22.6667" height="22.6667" fill="white" transform="translate(0.575806 0.515137)"/>
</clipPath>
</defs>
</svg>
