<svg width="15" height="14" viewBox="0 0 15 14" fill="none" xmlns="http://www.w3.org/2000/svg">
<path d="M11.6903 13.9681C11.5522 13.9894 11.4327 13.9522 11.332 13.8566C11.2309 13.7609 11.1803 13.6387 11.1803 13.49C11.1803 13.3731 11.2228 13.2694 11.3078 13.1788C11.3928 13.0887 11.4937 13.0331 11.6106 13.0118C12.2375 12.9162 12.7716 12.648 13.2128 12.2072C13.6535 11.766 13.9217 11.232 14.0174 10.6051C14.0386 10.4882 14.0918 10.3872 14.1768 10.3022C14.2618 10.2172 14.3627 10.1747 14.4796 10.1747C14.6284 10.1747 14.7533 10.2253 14.8545 10.3264C14.9552 10.4272 14.9949 10.5466 14.9737 10.6847C14.8568 11.5348 14.493 12.2654 13.8822 12.8766C13.271 13.4874 12.5404 13.8512 11.6903 13.9681ZM1.48953 3.79921C1.34077 3.79921 1.21857 3.74863 1.12294 3.64748C1.02731 3.54674 0.990118 3.42731 1.01137 3.28917C1.12825 2.43911 1.49229 1.70848 2.10349 1.09728C2.71426 0.486508 3.44468 0.12268 4.29475 0.0057959C4.43288 -0.0154557 4.55253 0.0217347 4.65369 0.117367C4.75442 0.212999 4.80479 0.335196 4.80479 0.483958C4.80479 0.600842 4.76228 0.704337 4.67728 0.794444C4.59227 0.884976 4.49133 0.940868 4.37444 0.96212C3.75814 1.05775 3.22685 1.32871 2.78057 1.77499C2.33428 2.22128 2.06333 2.75257 1.96769 3.36887C1.94644 3.48575 1.89076 3.5867 1.80066 3.6717C1.71012 3.75671 1.60642 3.79921 1.48953 3.79921ZM4.19912 5.60029C4.14599 5.65342 4.11942 5.71717 4.11942 5.79155C4.11942 5.86594 4.14599 5.935 4.19912 5.99876C4.50726 6.32816 4.69598 6.72663 4.76526 7.19416C4.83411 7.6617 4.71447 8.10267 4.40632 8.51708C4.35319 8.59146 4.32939 8.66839 4.33491 8.74787C4.34001 8.82778 4.36913 8.89429 4.42226 8.94742C4.49664 9.0218 4.57888 9.05899 4.66899 9.05899C4.75952 9.05899 4.83135 9.0218 4.88448 8.94742C5.22451 8.51176 5.39983 7.99365 5.41046 7.39308C5.42108 6.79293 5.24045 6.26972 4.86854 5.82343L9.72985 0.96212C9.88924 0.802732 10.078 0.723039 10.296 0.723039C10.5136 0.723039 10.7021 0.802732 10.8615 0.96212C11.0103 1.11088 11.09 1.29407 11.1006 1.51169C11.1112 1.72973 11.0315 1.92376 10.8615 2.09377L7.59406 5.36121C7.53031 5.42496 7.49843 5.49934 7.49843 5.58435C7.49843 5.66936 7.525 5.74374 7.57813 5.80749C7.64188 5.86062 7.71626 5.88974 7.80127 5.89484C7.88627 5.90036 7.96066 5.87125 8.02441 5.80749L12.2004 1.63155C12.3491 1.48278 12.5378 1.4084 12.7665 1.4084C12.9947 1.4084 13.1832 1.48278 13.332 1.63155C13.4808 1.78031 13.5552 1.96881 13.5552 2.19705C13.5552 2.42572 13.4808 2.61443 13.332 2.7632L9.172 6.9232C9.10824 6.98696 9.07637 7.06389 9.07637 7.154C9.07637 7.24453 9.10824 7.32167 9.172 7.38543C9.22513 7.44918 9.29696 7.48106 9.38749 7.48106C9.4776 7.48106 9.55453 7.44918 9.61828 7.38543L13.1089 3.89485C13.2683 3.73546 13.457 3.65577 13.675 3.65577C13.8926 3.65577 14.0811 3.73546 14.2405 3.89485C14.3893 4.04361 14.4637 4.23211 14.4637 4.46035C14.4637 4.68902 14.3893 4.87773 14.2405 5.0265L10.2877 8.96336C10.224 9.02712 10.1921 9.1015 10.1921 9.1865C10.1921 9.27151 10.224 9.34589 10.2877 9.40965C10.3515 9.4734 10.4258 9.50783 10.5109 9.51293C10.5959 9.51845 10.6702 9.48934 10.734 9.42558L13.332 6.82757C13.502 6.65756 13.696 6.57787 13.9141 6.58849C14.1317 6.59912 14.3149 6.67881 14.4637 6.82757C14.6124 6.97633 14.6921 7.15974 14.7027 7.37778C14.7134 7.59539 14.6337 7.78921 14.4637 7.95922L9.953 12.4699C9.44296 12.9799 8.86385 13.3625 8.21568 13.6175C7.5675 13.8725 6.90615 14 6.23162 14C5.55667 14 4.89511 13.8725 4.24693 13.6175C3.59876 13.3625 3.01965 12.9799 2.50961 12.4699C1.99957 11.9598 1.61704 11.3807 1.36202 10.7326C1.107 10.0844 0.979492 9.42282 0.979492 8.74787C0.979492 8.07334 1.107 7.41199 1.36202 6.76382C1.61704 6.11564 1.99957 5.53654 2.50961 5.0265L5.44234 2.09377C5.5911 1.94501 5.7796 1.86531 6.00784 1.85469C6.23651 1.84406 6.43054 1.91844 6.58992 2.07783C6.73869 2.22659 6.81307 2.41509 6.81307 2.64334C6.81307 2.872 6.73869 3.06072 6.58992 3.20948L4.19912 5.60029Z" fill="#FDAA11"/>
</svg>
