<svg width="40" height="40" viewBox="0 0 40 40" fill="none" xmlns="http://www.w3.org/2000/svg">
<path fill-rule="evenodd" clip-rule="evenodd" d="M18.8217 5.48834C19.1342 5.17589 19.5581 5.00037 20 5.00037C20.442 5.00037 20.8658 5.17589 21.1784 5.48834L31.1784 15.4883L34.5117 18.8217C34.8153 19.136 34.9833 19.557 34.9795 19.994C34.9757 20.431 34.8004 20.849 34.4914 21.158C34.1824 21.4671 33.7644 21.6423 33.3274 21.6461C32.8904 21.6499 32.4694 21.4819 32.155 21.1783L31.6667 20.69V31.6667C31.6667 32.5507 31.3155 33.3986 30.6904 34.0237C30.0653 34.6488 29.2174 35 28.3334 35H23.3334C22.8913 35 22.4674 34.8244 22.1549 34.5119C21.8423 34.1993 21.6667 33.7754 21.6667 33.3333V28.3333H18.3334V33.3333C18.3334 33.7754 18.1578 34.1993 17.8452 34.5119C17.5326 34.8244 17.1087 35 16.6667 35H11.6667C10.7826 35 9.93479 34.6488 9.30967 34.0237C8.68455 33.3986 8.33336 32.5507 8.33336 31.6667V20.69L7.84503 21.1783C7.53069 21.4819 7.10969 21.6499 6.67269 21.6461C6.2357 21.6423 5.81768 21.4671 5.50866 21.158C5.19965 20.849 5.02437 20.431 5.02057 19.994C5.01677 19.557 5.18476 19.136 5.48836 18.8217L8.8217 15.4883L18.8217 5.48834Z" fill="#B6B3B3"/>
</svg>
