<svg width="35" height="35" viewBox="0 0 35 35" fill="none" xmlns="http://www.w3.org/2000/svg">
<path fill-rule="evenodd" clip-rule="evenodd" d="M5.8335 1.45833C3.41726 1.45833 1.4585 3.41709 1.4585 5.83333V21.2521C1.4585 21.7942 2.02894 22.1468 2.51376 21.9045L6.79362 19.7645C8.0253 19.1486 9.47504 19.1486 10.7067 19.7645L13.7218 21.272C14.1899 21.506 14.7474 21.4713 15.1829 21.181L20.9067 17.3651C22.3762 16.3854 24.2908 16.3854 25.7603 17.3651L32.4083 21.7971C32.8927 22.1201 33.5418 21.7728 33.5418 21.1903V5.83333C33.5418 3.41709 31.5831 1.45833 29.1668 1.45833H5.8335ZM13.1252 13.125C13.1252 14.7359 11.8193 16.0417 10.2085 16.0417C8.59767 16.0417 7.29183 14.7359 7.29183 13.125C7.29183 11.5142 8.59767 10.2083 10.2085 10.2083C11.8193 10.2083 13.1252 11.5142 13.1252 13.125ZM1.86156 25.4914C1.61454 25.6149 1.4585 25.8675 1.4585 26.1435V29.1667C1.4585 31.583 3.41726 33.5417 5.8335 33.5417H29.1668C31.5831 33.5417 33.5418 31.583 33.5418 29.1667V26.25C33.5418 26.1301 33.4819 26.0183 33.3823 25.9519L24.1424 19.7919C23.6526 19.4654 23.0144 19.4654 22.5246 19.7919L16.8007 23.6078C15.4945 24.4787 13.8216 24.5828 12.4174 23.8808L9.40236 22.3732C8.99179 22.168 8.50855 22.168 8.09798 22.3732L1.86156 25.4914Z" fill="#01A6FB" fill-opacity="0.5"/>
</svg>
