<svg width="24" height="24" viewBox="0 0 24 24" fill="none" xmlns="http://www.w3.org/2000/svg">
<g clip-path="url(#clip0_877_895)">
<path d="M12.0455 23.1818C5.645 23.1818 0.45459 17.9914 0.45459 11.5909C0.45459 5.19041 5.645 0 12.0455 0C18.446 0 23.6364 5.19041 23.6364 11.5909C23.6364 17.9914 18.446 23.1818 12.0455 23.1818Z" fill="url(#paint0_linear_877_895)"/>
<path d="M12.0455 5.10488C14.1574 5.10488 14.4077 5.11184 15.2423 5.15124C16.0142 5.18602 16.4338 5.31584 16.712 5.42479C17.0806 5.56852 17.3449 5.74006 17.6207 6.01593C17.8966 6.29179 18.0681 6.55606 18.2119 6.92465C18.3208 7.20284 18.4483 7.62243 18.4854 8.39438C18.5225 9.22893 18.5318 9.47929 18.5318 11.5912C18.5318 13.703 18.5248 13.9534 18.4854 14.7879C18.4506 15.5599 18.3208 15.9795 18.2119 16.2577C18.0681 16.6262 17.8966 16.8905 17.6207 17.1664C17.3449 17.4422 17.0806 17.6138 16.712 17.7575C16.4338 17.8665 16.0142 17.994 15.2423 18.0311C14.4077 18.0682 14.1574 18.0774 12.0455 18.0774C9.93364 18.0774 9.68327 18.0705 8.84873 18.0311C8.07677 17.9963 7.65718 17.8665 7.379 17.7575C7.01041 17.6138 6.74613 17.4422 6.47027 17.1664C6.19441 16.8905 6.02286 16.6262 5.87913 16.2577C5.77018 15.9795 5.64268 15.5599 5.60559 14.7879C5.5685 13.9534 5.55923 13.703 5.55923 11.5912C5.55923 9.47929 5.56618 9.22893 5.60559 8.39438C5.64036 7.62243 5.77018 7.20284 5.87913 6.92465C6.02286 6.55606 6.19441 6.29179 6.47027 6.01593C6.74613 5.74006 7.01041 5.56852 7.379 5.42479C7.65718 5.31584 8.07677 5.18834 8.84873 5.15124C9.68327 5.11184 9.93364 5.10488 12.0455 5.10488ZM12.0455 3.6792C9.89654 3.6792 9.62764 3.68847 8.78382 3.72788C7.94232 3.76729 7.36741 3.89943 6.86204 4.09647C6.34277 4.29584 5.9 4.56706 5.46186 5.00752C5.02141 5.44797 4.7525 5.88843 4.5485 6.41002C4.35377 6.91306 4.21932 7.48797 4.17991 8.33179C4.1405 9.17561 4.13123 9.44452 4.13123 11.5935C4.13123 13.7424 4.1405 14.0113 4.17991 14.8552C4.21932 15.6967 4.35145 16.2716 4.5485 16.7769C4.75018 17.2939 5.02141 17.7367 5.46186 18.1748C5.90232 18.6152 6.34277 18.8842 6.86436 19.0882C7.36741 19.2829 7.94232 19.4173 8.78613 19.4567C9.62995 19.4962 9.89886 19.5054 12.0478 19.5054C14.1968 19.5054 14.4657 19.4962 15.3095 19.4567C16.151 19.4173 16.7259 19.2852 17.2313 19.0882C17.7482 18.8865 18.191 18.6152 18.6291 18.1748C19.0696 17.7343 19.3385 17.2939 19.5425 16.7723C19.7372 16.2692 19.8717 15.6943 19.9111 14.8505C19.9505 14.0067 19.9598 13.7378 19.9598 11.5888C19.9598 9.43988 19.9505 9.17097 19.9111 8.32715C19.8717 7.48565 19.7395 6.91074 19.5425 6.40538C19.3408 5.88843 19.0696 5.44565 18.6291 5.00752C18.1887 4.56706 17.7482 4.29815 17.2266 4.09415C16.7236 3.89943 16.1487 3.76497 15.3049 3.72556C14.4634 3.68847 14.1945 3.6792 12.0455 3.6792Z" fill="white"/>
<path d="M12.0455 7.52734C9.80146 7.52734 7.98169 9.34712 7.98169 11.5911C7.98169 13.8351 9.80146 15.6549 12.0455 15.6549C14.2895 15.6549 16.1092 13.8351 16.1092 11.5911C16.1092 9.34712 14.2895 7.52734 12.0455 7.52734ZM12.0455 14.2292C10.5896 14.2292 9.40737 13.0493 9.40737 11.5911C9.40737 10.133 10.5896 8.95303 12.0455 8.95303C13.5013 8.95303 14.6836 10.133 14.6836 11.5911C14.6836 13.0493 13.5013 14.2292 12.0455 14.2292Z" fill="white"/>
<path d="M16.2692 8.3179C16.7941 8.3179 17.2196 7.89237 17.2196 7.36745C17.2196 6.84253 16.7941 6.41699 16.2692 6.41699C15.7443 6.41699 15.3187 6.84253 15.3187 7.36745C15.3187 7.89237 15.7443 8.3179 16.2692 8.3179Z" fill="white"/>
</g>
<defs>
<linearGradient id="paint0_linear_877_895" x1="3.8495" y1="19.7869" x2="20.2415" y2="3.39491" gradientUnits="userSpaceOnUse">
<stop stop-color="#FFD521"/>
<stop offset="0.0551048" stop-color="#FFD020"/>
<stop offset="0.1241" stop-color="#FEC01E"/>
<stop offset="0.2004" stop-color="#FCA71B"/>
<stop offset="0.2821" stop-color="#FA8316"/>
<stop offset="0.3681" stop-color="#F85510"/>
<stop offset="0.4563" stop-color="#F51E09"/>
<stop offset="0.5" stop-color="#F30005"/>
<stop offset="0.5035" stop-color="#F20007"/>
<stop offset="0.5966" stop-color="#E1003B"/>
<stop offset="0.6879" stop-color="#D30067"/>
<stop offset="0.7757" stop-color="#C70088"/>
<stop offset="0.8589" stop-color="#BF00A0"/>
<stop offset="0.9357" stop-color="#BB00AF"/>
<stop offset="1" stop-color="#B900B4"/>
</linearGradient>
<clipPath id="clip0_877_895">
<rect width="23.1818" height="23.1818" fill="white" transform="translate(0.45459)"/>
</clipPath>
</defs>
</svg>
