<svg width="45" height="45" viewBox="0 0 45 45" fill="none" xmlns="http://www.w3.org/2000/svg">
<g clip-path="url(#clip0_138_718)">
<path d="M22.5 45C10.0755 45 0 34.9245 0 22.5C0 10.0755 10.0755 0 22.5 0C34.9245 0 45 10.0755 45 22.5C45 34.9245 34.9245 45 22.5 45Z" fill="url(#paint0_linear_138_718)"/>
<path d="M22.5002 9.90898C26.5997 9.90898 27.0857 9.92248 28.7057 9.99898C30.2042 10.0665 31.0187 10.3185 31.5587 10.53C32.2742 10.809 32.7872 11.142 33.3227 11.6775C33.8582 12.213 34.1912 12.726 34.4702 13.4415C34.6817 13.9815 34.9292 14.796 35.0012 16.2945C35.0732 17.9145 35.0912 18.4005 35.0912 22.5C35.0912 26.5995 35.0777 27.0855 35.0012 28.7055C34.9337 30.204 34.6817 31.0185 34.4702 31.5585C34.1912 32.274 33.8582 32.787 33.3227 33.3225C32.7872 33.858 32.2742 34.191 31.5587 34.47C31.0187 34.6815 30.2042 34.929 28.7057 35.001C27.0857 35.073 26.5997 35.091 22.5002 35.091C18.4007 35.091 17.9147 35.0775 16.2947 35.001C14.7962 34.9335 13.9817 34.6815 13.4417 34.47C12.7262 34.191 12.2132 33.858 11.6777 33.3225C11.1422 32.787 10.8092 32.274 10.5302 31.5585C10.3187 31.0185 10.0712 30.204 9.99921 28.7055C9.92721 27.0855 9.90921 26.5995 9.90921 22.5C9.90921 18.4005 9.92271 17.9145 9.99921 16.2945C10.0667 14.796 10.3187 13.9815 10.5302 13.4415C10.8092 12.726 11.1422 12.213 11.6777 11.6775C12.2132 11.142 12.7262 10.809 13.4417 10.53C13.9817 10.3185 14.7962 10.071 16.2947 9.99898C17.9147 9.92248 18.4007 9.90898 22.5002 9.90898ZM22.5002 7.14148C18.3287 7.14148 17.8067 7.15948 16.1687 7.23598C14.5352 7.31248 13.4192 7.56898 12.4382 7.95148C11.4302 8.33848 10.5707 8.86498 9.72021 9.71998C8.86521 10.575 8.34321 11.43 7.94721 12.4425C7.56921 13.419 7.30821 14.535 7.23171 16.173C7.15521 17.811 7.13721 18.333 7.13721 22.5045C7.13721 26.676 7.15521 27.198 7.23171 28.836C7.30821 30.4695 7.56471 31.5855 7.94721 32.5665C8.33871 33.57 8.86521 34.4295 9.72021 35.28C10.5752 36.135 11.4302 36.657 12.4427 37.053C13.4192 37.431 14.5352 37.692 16.1732 37.7685C17.8112 37.845 18.3332 37.863 22.5047 37.863C26.6762 37.863 27.1982 37.845 28.8362 37.7685C30.4697 37.692 31.5857 37.4355 32.5667 37.053C33.5702 36.6615 34.4297 36.135 35.2802 35.28C36.1352 34.425 36.6572 33.57 37.0532 32.5575C37.4312 31.581 37.6922 30.465 37.7687 28.827C37.8452 27.189 37.8632 26.667 37.8632 22.4955C37.8632 18.324 37.8452 17.802 37.7687 16.164C37.6922 14.5305 37.4357 13.4145 37.0532 12.4335C36.6617 11.43 36.1352 10.5705 35.2802 9.71998C34.4252 8.86498 33.5702 8.34298 32.5577 7.94698C31.5812 7.56898 30.4652 7.30798 28.8272 7.23148C27.1937 7.15948 26.6717 7.14148 22.5002 7.14148Z" fill="white"/>
<path d="M22.5003 14.6115C18.1443 14.6115 14.6118 18.1439 14.6118 22.4999C14.6118 26.8559 18.1443 30.3884 22.5003 30.3884C26.8563 30.3884 30.3888 26.8559 30.3888 22.4999C30.3888 18.1439 26.8563 14.6115 22.5003 14.6115ZM22.5003 27.6209C19.6743 27.6209 17.3793 25.3304 17.3793 22.4999C17.3793 19.6694 19.6743 17.379 22.5003 17.379C25.3263 17.379 27.6213 19.6694 27.6213 22.4999C27.6213 25.3304 25.3263 27.6209 22.5003 27.6209Z" fill="white"/>
<path d="M30.6995 16.1459C31.7185 16.1459 32.5445 15.3199 32.5445 14.3009C32.5445 13.282 31.7185 12.4559 30.6995 12.4559C29.6805 12.4559 28.8545 13.282 28.8545 14.3009C28.8545 15.3199 29.6805 16.1459 30.6995 16.1459Z" fill="white"/>
</g>
<defs>
<linearGradient id="paint0_linear_138_718" x1="6.59011" y1="38.4099" x2="38.4099" y2="6.59011" gradientUnits="userSpaceOnUse">
<stop stop-color="#FFD521"/>
<stop offset="0.0551048" stop-color="#FFD020"/>
<stop offset="0.1241" stop-color="#FEC01E"/>
<stop offset="0.2004" stop-color="#FCA71B"/>
<stop offset="0.2821" stop-color="#FA8316"/>
<stop offset="0.3681" stop-color="#F85510"/>
<stop offset="0.4563" stop-color="#F51E09"/>
<stop offset="0.5" stop-color="#F30005"/>
<stop offset="0.5035" stop-color="#F20007"/>
<stop offset="0.5966" stop-color="#E1003B"/>
<stop offset="0.6879" stop-color="#D30067"/>
<stop offset="0.7757" stop-color="#C70088"/>
<stop offset="0.8589" stop-color="#BF00A0"/>
<stop offset="0.9357" stop-color="#BB00AF"/>
<stop offset="1" stop-color="#B900B4"/>
</linearGradient>
<clipPath id="clip0_138_718">
<rect width="45" height="45" fill="white"/>
</clipPath>
</defs>
</svg>
