<svg width="32" height="32" viewBox="0 0 32 32" fill="none" xmlns="http://www.w3.org/2000/svg">
<path d="M24.0653 0H7.93469C3.56 0 0 3.56 0 7.936V16.064C0 20.44 3.56 24 7.93469 24H9.33337V30.6667C9.33337 31.2947 9.77069 31.836 10.3841 31.9694C10.4788 31.9907 10.5734 32.0001 10.6667 32.0001C11.1814 32.0001 11.6601 31.7028 11.8801 31.2201C13.6653 27.3 17.9 24.6467 19.0147 24H24.0654C28.44 24 32 20.44 32 16.064V7.936C32 3.56 28.44 0 24.0653 0ZM9.33331 8H18.6666C19.4039 8 19.9999 8.59731 19.9999 9.33331C19.9999 10.0693 19.4039 10.6666 18.6666 10.6666H9.33331C8.596 10.6666 8 10.0693 8 9.33331C8 8.59731 8.596 8 9.33331 8ZM22.6667 16H9.33331C8.596 16 8 15.4027 8 14.6667C8 13.9307 8.596 13.3334 9.33331 13.3334H22.6666C23.4039 13.3334 23.9999 13.9307 23.9999 14.6667C23.9999 15.4027 23.404 16 22.6667 16Z" fill="#B6B3B3"/>
</svg>
