<svg width="234" height="234" viewBox="0 0 234 234" fill="none" xmlns="http://www.w3.org/2000/svg">
<path fill-rule="evenodd" clip-rule="evenodd" d="M107.651 3.80627C110.088 1.36912 113.394 0 116.842 0C120.289 0 123.595 1.36912 126.033 3.80627L204.034 81.8072L230.034 107.808C232.402 110.259 233.712 113.543 233.683 116.952C233.653 120.36 232.286 123.621 229.876 126.031C227.465 128.442 224.205 129.809 220.796 129.839C217.387 129.868 214.104 128.558 211.652 126.19L207.843 122.381V208C207.843 214.895 205.103 221.509 200.227 226.385C195.351 231.261 188.738 234 181.842 234H142.842C139.394 234 136.087 232.63 133.649 230.192C131.211 227.754 129.842 224.448 129.842 221V181.999H103.841V221C103.841 224.448 102.472 227.754 100.034 230.192C97.5958 232.63 94.2892 234 90.8413 234H51.8409C44.9452 234 38.3319 231.261 33.4559 226.385C28.5799 221.509 25.8406 214.895 25.8406 208V122.381L22.0315 126.19C19.5797 128.558 16.2958 129.868 12.8872 129.839C9.47859 129.809 6.21799 128.442 3.80766 126.031C1.39732 123.621 0.0301112 120.36 0.00049144 116.952C-0.0291284 113.543 1.28121 110.259 3.6493 107.808L29.6496 81.8072L107.651 3.80627Z" fill="#01A6FB" fill-opacity="0.1"/>
<g clip-path="url(#clip0_433_237)">
<path d="M114.719 186.961C152.435 186.961 183.01 156.386 183.01 118.67C183.01 80.9538 152.435 50.3789 114.719 50.3789C77.0026 50.3789 46.4277 80.9538 46.4277 118.67C46.4277 156.386 77.0021 186.961 114.719 186.961Z" fill="url(#paint0_linear_433_237)"/>
<path d="M151.561 66.2701H75.9092C71.1936 66.2701 67.3706 70.0931 67.3706 74.8087H160.099C160.099 70.0926 156.277 66.2701 151.561 66.2701Z" fill="url(#paint1_linear_433_237)"/>
<path d="M67.3711 74.5749H160.1V145.198C160.1 148.339 158.853 151.35 156.632 153.57C154.412 155.79 151.401 157.038 148.26 157.038H79.2099C76.0696 157.038 73.0589 155.79 70.8381 153.57C68.6177 151.35 67.3706 148.339 67.3706 145.198L67.3711 74.5749Z" fill="url(#paint2_linear_433_237)"/>
<path d="M144.16 83.495H83.3401C82.0739 83.495 81.0469 84.521 81.0469 85.7862C81.0469 87.0515 82.0739 88.0775 83.3401 88.0775H144.16C145.427 88.0775 146.453 87.0515 146.453 85.7862C146.453 84.521 145.427 83.495 144.16 83.495Z" fill="url(#paint3_linear_433_237)"/>
<path d="M144.16 102.962H83.3401C82.0739 102.962 81.0469 103.988 81.0469 105.253C81.0469 106.518 82.0739 107.544 83.3401 107.544H144.16C145.427 107.544 146.453 106.518 146.453 105.253C146.453 103.987 145.427 102.962 144.16 102.962Z" fill="url(#paint4_linear_433_237)"/>
<path d="M144.16 122.427H83.3401C82.0739 122.427 81.0469 123.454 81.0469 124.719C81.0469 125.984 82.0739 127.01 83.3401 127.01H144.16C145.427 127.01 146.453 125.984 146.453 124.719C146.453 123.454 145.427 122.427 144.16 122.427Z" fill="url(#paint5_linear_433_237)"/>
<path d="M144.16 141.894H83.3401C82.0739 141.894 81.0469 142.92 81.0469 144.185C81.0469 145.451 82.0739 146.476 83.3401 146.476H144.16C145.427 146.476 146.453 145.451 146.453 144.185C146.453 142.92 145.427 141.894 144.16 141.894Z" fill="url(#paint6_linear_433_237)"/>
<path d="M82.9286 118.253H50.5427C47.9409 118.253 45.832 120.362 45.832 122.963V169.253C45.832 171.855 47.9414 173.964 50.5427 173.964H82.9286C85.5299 173.964 87.6393 171.855 87.6393 169.253V122.963C87.6393 120.362 85.5299 118.253 82.9286 118.253Z" fill="url(#paint7_linear_433_237)"/>
<path d="M175.12 45.947H139.349C137.681 45.947 136.331 47.2983 136.331 48.965V65.7786C136.331 67.4448 137.681 68.7966 139.349 68.7966H175.12C176.786 68.7966 178.138 67.4453 178.138 65.7786V48.965C178.138 47.2988 176.786 45.947 175.12 45.947Z" fill="url(#paint8_linear_433_237)"/>
<path d="M79.3152 141.41H54.1572C53.3102 141.41 52.6235 142.097 52.6235 142.944V142.949C52.6235 143.796 53.3102 144.482 54.1572 144.482H79.3152C80.1623 144.482 80.8489 143.796 80.8489 142.949V142.944C80.8489 142.097 80.1623 141.41 79.3152 141.41Z" fill="url(#paint9_linear_433_237)"/>
<path d="M79.3295 163.031H54.3877C53.548 163.031 52.8672 163.697 52.8672 164.517V164.522C52.8672 165.343 53.548 166.009 54.3877 166.009H79.3295C80.1692 166.009 80.85 165.343 80.85 164.522V164.517C80.85 163.697 80.1687 163.031 79.3295 163.031Z" fill="url(#paint10_linear_433_237)"/>
<path d="M79.3295 151.719H54.3877C53.548 151.719 52.8672 152.384 52.8672 153.205V153.21C52.8672 154.031 53.548 154.696 54.3877 154.696H79.3295C80.1692 154.696 80.85 154.031 80.85 153.21V153.205C80.85 152.384 80.1687 151.719 79.3295 151.719Z" fill="url(#paint11_linear_433_237)"/>
<path d="M63.3563 125.401H56.0042C54.3756 125.401 53.0557 126.721 53.0557 128.35V130.39C53.0557 132.019 54.3756 133.339 56.0042 133.339H63.3563C64.9849 133.339 66.3049 132.019 66.3049 130.39V128.35C66.3044 126.721 64.9844 125.401 63.3563 125.401Z" fill="url(#paint12_linear_433_237)"/>
<path d="M145.159 60.8395C147.076 60.8395 148.629 59.2858 148.629 57.3696C148.629 55.453 147.076 53.8997 145.159 53.8997C143.242 53.8997 141.689 55.453 141.689 57.3696C141.689 59.2853 143.242 60.8395 145.159 60.8395Z" fill="#01A6FB"/>
<path d="M157.559 60.8395C159.476 60.8395 161.029 59.2858 161.029 57.3696C161.029 55.453 159.476 53.8997 157.559 53.8997C155.643 53.8997 154.089 55.453 154.089 57.3696C154.089 59.2853 155.643 60.8395 157.559 60.8395Z" fill="#01A6FB"/>
<path d="M169.959 60.8395C171.876 60.8395 173.429 59.2858 173.429 57.3696C173.429 55.453 171.876 53.8997 169.959 53.8997C168.043 53.8997 166.489 55.453 166.489 57.3696C166.489 59.2853 168.043 60.8395 169.959 60.8395Z" fill="#01A6FB"/>
<path d="M160.552 143.6L151.763 153.288L176.534 175.757L185.322 166.068L160.552 143.6Z" fill="#01A6FB"/>
<path fill-rule="evenodd" clip-rule="evenodd" d="M169.838 127.564C169.838 147.833 153.408 164.264 133.139 164.264C112.871 164.264 96.4399 147.833 96.4399 127.564C96.4399 107.296 112.871 90.8652 133.139 90.8652C153.408 90.8652 169.838 107.296 169.838 127.564ZM164.209 127.564C164.209 144.723 150.299 158.634 133.139 158.634C115.979 158.634 102.069 144.724 102.069 127.564C102.069 110.405 115.979 96.4938 133.139 96.4938C150.299 96.4938 164.209 110.404 164.209 127.564Z" fill="#01A6FB"/>
<path d="M133.14 158.634C150.299 158.634 164.21 144.723 164.21 127.564C164.21 110.404 150.299 96.4933 133.14 96.4933C115.98 96.4933 102.069 110.404 102.069 127.564C102.069 144.723 115.98 158.634 133.14 158.634Z" fill="url(#paint13_linear_433_237)" fill-opacity="0.2"/>
<path d="M134.167 147.952C146.23 147.952 156.008 146.507 156.008 144.725C156.008 142.943 146.23 141.498 134.167 141.498C122.104 141.498 112.325 142.943 112.325 144.725C112.325 146.507 122.104 147.952 134.167 147.952Z" fill="#E30404" fill-opacity="0.56"/>
<path d="M140.605 127.564L149.491 118.659C150.323 117.777 150.779 116.607 150.762 115.395C150.745 114.182 150.256 113.025 149.398 112.168C148.542 111.311 147.384 110.821 146.172 110.805C144.96 110.788 143.789 111.244 142.908 112.076L134.002 120.982L125.117 112.076C124.689 111.624 124.175 111.262 123.605 111.011C123.035 110.76 122.421 110.627 121.798 110.618C121.176 110.61 120.558 110.726 119.981 110.96C119.404 111.194 118.88 111.541 118.44 111.982C118 112.422 117.652 112.946 117.418 113.523C117.184 114.099 117.068 114.717 117.077 115.34C117.085 115.963 117.219 116.577 117.469 117.147C117.719 117.717 118.081 118.231 118.534 118.659L127.435 127.564L118.534 136.47C118.082 136.897 117.72 137.411 117.469 137.982C117.218 138.551 117.085 139.166 117.077 139.789C117.068 140.411 117.184 141.029 117.418 141.606C117.653 142.183 118 142.707 118.44 143.147C118.88 143.587 119.404 143.935 119.981 144.169C120.558 144.403 121.176 144.519 121.798 144.51C122.421 144.501 123.035 144.368 123.605 144.117C124.175 143.868 124.689 143.506 125.117 143.052L134.023 134.147L142.928 143.052C143.818 143.836 144.972 144.251 146.157 144.212C147.341 144.174 148.466 143.685 149.304 142.845C150.14 142.007 150.626 140.879 150.66 139.695C150.695 138.511 150.277 137.358 149.491 136.47L140.605 127.564Z" fill="#D52525"/>
<path d="M110.14 161.12L110.148 172.371C110.149 173.062 110.708 173.621 111.398 173.622L122.649 173.63L111.398 173.638C110.708 173.638 110.149 174.197 110.148 174.887L110.14 186.139L110.132 174.887C110.132 174.197 109.573 173.638 108.882 173.638L97.6309 173.63L108.882 173.622C109.572 173.621 110.131 173.062 110.132 172.371L110.14 161.12Z" fill="url(#paint14_linear_433_237)"/>
<path d="M60.7237 46.8068L60.7315 58.0577C60.732 58.7478 61.2915 59.3073 61.9815 59.3083L73.233 59.3161L61.9815 59.3239C61.2915 59.3244 60.732 59.8844 60.7315 60.5745L60.7237 71.8254L60.7158 60.5745C60.7153 59.8844 60.1559 59.3249 59.4658 59.3239L48.2144 59.3161L59.4658 59.3083C60.1559 59.3078 60.7153 58.7478 60.7158 58.0577L60.7237 46.8068Z" fill="url(#paint15_linear_433_237)"/>
<path fill-rule="evenodd" clip-rule="evenodd" d="M111.997 52.5396C113.148 52.5396 114.081 51.6065 114.081 50.4552C114.081 49.304 113.148 48.3703 111.997 48.3703C110.845 48.3703 109.912 49.304 109.912 50.4552C109.911 51.607 110.845 52.5396 111.997 52.5396ZM111.997 54.1036C114.012 54.1036 115.645 52.4697 115.645 50.4552C115.645 48.4398 114.011 46.8068 111.997 46.8068C109.981 46.8068 108.348 48.4398 108.348 50.4552C108.348 52.4702 109.981 54.1036 111.997 54.1036Z" fill="url(#paint16_linear_433_237)"/>
<path d="M176.825 109.949C176.627 109.171 177.345 108.471 178.117 108.688L183.332 110.153C184.105 110.371 184.352 111.342 183.778 111.903L179.902 115.686C179.327 116.247 178.362 115.976 178.163 115.198L176.825 109.949Z" fill="url(#paint17_linear_433_237)"/>
<path d="M54.5916 100.998C55.3697 100.801 56.0691 101.519 55.8509 102.291L54.3789 107.504C54.1607 108.276 53.1885 108.522 52.6285 107.948L48.85 104.067C48.29 103.491 48.5629 102.526 49.3405 102.328L54.5916 100.998Z" fill="url(#paint18_linear_433_237)"/>
<path d="M154.021 173.039C154.799 172.842 155.498 173.56 155.28 174.332L153.809 179.545C153.59 180.318 152.618 180.564 152.058 179.989L148.28 176.108C147.72 175.533 147.993 174.568 148.77 174.371L154.021 173.039Z" fill="url(#paint19_linear_433_237)"/>
<path fill-rule="evenodd" clip-rule="evenodd" d="M181.656 82.9042C182.807 82.9042 183.741 81.971 183.741 80.8198C183.741 79.6685 182.807 78.7349 181.656 78.7349C180.504 78.7349 179.571 79.6685 179.571 80.8198C179.571 81.971 180.504 82.9042 181.656 82.9042ZM181.656 84.4682C183.671 84.4682 185.304 82.8342 185.304 80.8198C185.304 78.8044 183.67 77.1714 181.656 77.1714C179.64 77.1714 178.007 78.8044 178.007 80.8198C178.007 82.8347 179.64 84.4682 181.656 84.4682Z" fill="url(#paint20_linear_433_237)"/>
<path d="M176.532 175.758L185.32 166.069L186.643 167.27C187.927 168.434 188.697 170.062 188.781 171.794C188.865 173.525 188.259 175.22 187.094 176.504C185.929 177.789 184.301 178.558 182.569 178.643C180.838 178.727 179.143 178.12 177.859 176.955L176.535 175.755L176.532 175.758Z" fill="#01A6FB"/>
</g>
<defs>
<linearGradient id="paint0_linear_433_237" x1="114.191" y1="28.1415" x2="115.589" y2="267.97" gradientUnits="userSpaceOnUse">
<stop stop-color="white" stop-opacity="0"/>
<stop offset="1" stop-color="#8EE2F4"/>
</linearGradient>
<linearGradient id="paint1_linear_433_237" x1="67.3144" y1="67.5561" x2="160.194" y2="74.1053" gradientUnits="userSpaceOnUse">
<stop stop-color="#01A6FB"/>
<stop offset="1" stop-color="#65C8DE"/>
</linearGradient>
<linearGradient id="paint2_linear_433_237" x1="64.9705" y1="114.835" x2="198.932" y2="117.216" gradientUnits="userSpaceOnUse">
<stop stop-color="white"/>
<stop offset="1" stop-color="#BCF3FF"/>
</linearGradient>
<linearGradient id="paint3_linear_433_237" x1="78.2808" y1="85.786" x2="150.322" y2="85.786" gradientUnits="userSpaceOnUse">
<stop stop-color="#01A6FB"/>
<stop offset="1" stop-color="#D2F7FF"/>
</linearGradient>
<linearGradient id="paint4_linear_433_237" x1="78.2808" y1="105.253" x2="150.322" y2="105.253" gradientUnits="userSpaceOnUse">
<stop stop-color="#01A6FB"/>
<stop offset="1" stop-color="#D2F7FF"/>
</linearGradient>
<linearGradient id="paint5_linear_433_237" x1="78.2808" y1="124.719" x2="150.322" y2="124.719" gradientUnits="userSpaceOnUse">
<stop stop-color="#01A6FB"/>
<stop offset="1" stop-color="#D2F7FF"/>
</linearGradient>
<linearGradient id="paint6_linear_433_237" x1="78.2808" y1="144.185" x2="150.322" y2="144.185" gradientUnits="userSpaceOnUse">
<stop stop-color="#65C8DE"/>
<stop offset="1" stop-color="#D2F7FF"/>
</linearGradient>
<linearGradient id="paint7_linear_433_237" x1="45.8609" y1="144.394" x2="125.991" y2="150.975" gradientUnits="userSpaceOnUse">
<stop stop-color="white"/>
<stop offset="1" stop-color="#BCF3FF"/>
</linearGradient>
<linearGradient id="paint8_linear_433_237" x1="135.259" y1="56.7362" x2="195.624" y2="58.4824" gradientUnits="userSpaceOnUse">
<stop stop-color="white"/>
<stop offset="1" stop-color="#BCF3FF"/>
</linearGradient>
<linearGradient id="paint9_linear_433_237" x1="84.1246" y1="142.946" x2="50.1876" y2="142.946" gradientUnits="userSpaceOnUse">
<stop stop-color="#01A6FB"/>
<stop offset="1" stop-color="#65C8DE"/>
</linearGradient>
<linearGradient id="paint10_linear_433_237" x1="84.0973" y1="164.519" x2="50.4524" y2="164.519" gradientUnits="userSpaceOnUse">
<stop stop-color="#01A6FB"/>
<stop offset="1" stop-color="#65C8DE"/>
</linearGradient>
<linearGradient id="paint11_linear_433_237" x1="84.0973" y1="153.207" x2="50.4524" y2="153.207" gradientUnits="userSpaceOnUse">
<stop stop-color="#01A6FB"/>
<stop offset="1" stop-color="#65C8DE"/>
</linearGradient>
<linearGradient id="paint12_linear_433_237" x1="75.4918" y1="129.37" x2="51.3787" y2="129.37" gradientUnits="userSpaceOnUse">
<stop offset="0.2438" stop-color="#01A6FB"/>
<stop offset="1" stop-color="#6BCBE0"/>
</linearGradient>
<linearGradient id="paint13_linear_433_237" x1="122.714" y1="100.511" x2="154.022" y2="181.753" gradientUnits="userSpaceOnUse">
<stop stop-color="white"/>
<stop offset="1" stop-color="#D2F7FF"/>
</linearGradient>
<linearGradient id="paint14_linear_433_237" x1="97.5593" y1="173.548" x2="122.742" y2="173.711" gradientUnits="userSpaceOnUse">
<stop stop-color="#90E3F5"/>
<stop offset="1" stop-color="#65C8DE"/>
</linearGradient>
<linearGradient id="paint15_linear_433_237" x1="48.1426" y1="59.234" x2="73.3253" y2="59.3978" gradientUnits="userSpaceOnUse">
<stop stop-color="#90E3F5"/>
<stop offset="1" stop-color="#65C8DE"/>
</linearGradient>
<linearGradient id="paint16_linear_433_237" x1="108.327" y1="50.4315" x2="115.672" y2="50.4792" gradientUnits="userSpaceOnUse">
<stop stop-color="#90E3F5"/>
<stop offset="1" stop-color="#65C8DE"/>
</linearGradient>
<linearGradient id="paint17_linear_433_237" x1="175.708" y1="115.01" x2="183.265" y2="107.73" gradientUnits="userSpaceOnUse">
<stop stop-color="#90E3F5"/>
<stop offset="1" stop-color="#65C8DE"/>
</linearGradient>
<linearGradient id="paint18_linear_433_237" x1="49.5324" y1="99.8739" x2="56.8027" y2="107.44" gradientUnits="userSpaceOnUse">
<stop stop-color="#90E3F5"/>
<stop offset="1" stop-color="#65C8DE"/>
</linearGradient>
<linearGradient id="paint19_linear_433_237" x1="148.962" y1="171.915" x2="156.232" y2="179.481" gradientUnits="userSpaceOnUse">
<stop stop-color="#90E3F5"/>
<stop offset="1" stop-color="#65C8DE"/>
</linearGradient>
<linearGradient id="paint20_linear_433_237" x1="177.986" y1="80.7961" x2="185.332" y2="80.8437" gradientUnits="userSpaceOnUse">
<stop stop-color="#90E3F5"/>
<stop offset="1" stop-color="#65C8DE"/>
</linearGradient>
<clipPath id="clip0_433_237">
<rect width="142.575" height="141" fill="white" transform="translate(46 46)"/>
</clipPath>
</defs>
</svg>
