<svg width="143" height="141" viewBox="0 0 143 141" fill="none" xmlns="http://www.w3.org/2000/svg">
<g clip-path="url(#clip0_119_237)">
<path d="M68.7188 140.961C106.435 140.961 137.01 110.386 137.01 72.67C137.01 34.9538 106.435 4.37892 68.7188 4.37892C31.0026 4.37892 0.427734 34.9538 0.427734 72.67C0.427734 110.386 31.0021 140.961 68.7188 140.961Z" fill="url(#paint0_linear_119_237)"/>
<path d="M105.561 20.2701H29.9092C25.1936 20.2701 21.3706 24.0931 21.3706 28.8087H114.099C114.099 24.0926 110.277 20.2701 105.561 20.2701Z" fill="url(#paint1_linear_119_237)"/>
<path d="M21.3711 28.5749H114.1V99.1983C114.1 102.339 112.853 105.35 110.632 107.57C108.412 109.79 105.401 111.038 102.26 111.038H33.2099C30.0696 111.038 27.0589 109.79 24.8381 107.57C22.6177 105.35 21.3706 102.339 21.3706 99.1983L21.3711 28.5749Z" fill="url(#paint2_linear_119_237)"/>
<path d="M98.1597 37.495H37.3401C36.0739 37.495 35.0469 38.521 35.0469 39.7862C35.0469 41.0515 36.0739 42.0775 37.3401 42.0775H98.1597C99.4269 42.0775 100.453 41.0515 100.453 39.7862C100.453 38.521 99.4269 37.495 98.1597 37.495Z" fill="url(#paint3_linear_119_237)"/>
<path d="M98.1597 56.9617H37.3401C36.0739 56.9617 35.0469 57.9878 35.0469 59.253C35.0469 60.5182 36.0739 61.5442 37.3401 61.5442H98.1597C99.4269 61.5442 100.453 60.5182 100.453 59.253C100.453 57.9873 99.4269 56.9617 98.1597 56.9617Z" fill="url(#paint4_linear_119_237)"/>
<path d="M98.1597 76.4275H37.3401C36.0739 76.4275 35.0469 77.4535 35.0469 78.7187C35.0469 79.9839 36.0739 81.01 37.3401 81.01H98.1597C99.4269 81.01 100.453 79.9839 100.453 78.7187C100.453 77.4535 99.4269 76.4275 98.1597 76.4275Z" fill="url(#paint5_linear_119_237)"/>
<path d="M98.1597 95.8942H37.3401C36.0739 95.8942 35.0469 96.9203 35.0469 98.1855C35.0469 99.4507 36.0739 100.476 37.3401 100.476H98.1597C99.4269 100.476 100.453 99.4507 100.453 98.1855C100.453 96.9203 99.4269 95.8942 98.1597 95.8942Z" fill="url(#paint6_linear_119_237)"/>
<path d="M36.9286 72.2528H4.5427C1.94088 72.2528 -0.167969 74.3617 -0.167969 76.9635V123.253C-0.167969 125.855 1.94137 127.964 4.5427 127.964H36.9286C39.5299 127.964 41.6393 125.855 41.6393 123.253V76.9635C41.6393 74.3617 39.5299 72.2528 36.9286 72.2528Z" fill="url(#paint7_linear_119_237)"/>
<path d="M129.12 -0.0529861H93.3486C91.6814 -0.0529861 90.3306 1.2983 90.3306 2.96504V19.7786C90.3306 21.4448 91.6814 22.7966 93.3486 22.7966H129.12C130.786 22.7966 132.138 21.4453 132.138 19.7786V2.96504C132.138 1.29879 130.786 -0.0529861 129.12 -0.0529861Z" fill="url(#paint8_linear_119_237)"/>
<path d="M33.3152 95.4095H8.15724C7.31018 95.4095 6.62354 96.0967 6.62354 96.9437V96.9486C6.62354 97.7957 7.31018 98.4823 8.15724 98.4823H33.3152C34.1623 98.4823 34.8489 97.7957 34.8489 96.9486V96.9437C34.8489 96.0967 34.1623 95.4095 33.3152 95.4095Z" fill="url(#paint9_linear_119_237)"/>
<path d="M33.3295 117.031H8.38769C7.54797 117.031 6.86719 117.697 6.86719 118.517V118.522C6.86719 119.343 7.54797 120.009 8.38769 120.009H33.3295C34.1692 120.009 34.85 119.343 34.85 118.522V118.517C34.85 117.697 34.1687 117.031 33.3295 117.031Z" fill="url(#paint10_linear_119_237)"/>
<path d="M33.3295 105.719H8.38769C7.54797 105.719 6.86719 106.384 6.86719 107.205V107.21C6.86719 108.031 7.54797 108.696 8.38769 108.696H33.3295C34.1692 108.696 34.85 108.031 34.85 107.21V107.205C34.85 106.384 34.1687 105.719 33.3295 105.719Z" fill="url(#paint11_linear_119_237)"/>
<path d="M17.3563 79.401H10.0042C8.37565 79.401 7.05566 80.721 7.05566 82.3496V84.3899C7.05566 86.0185 8.37565 87.339 10.0042 87.339H17.3563C18.9849 87.339 20.3049 86.0185 20.3049 84.3899V82.3496C20.3044 80.721 18.9844 79.401 17.3563 79.401Z" fill="url(#paint12_linear_119_237)"/>
<path d="M99.1589 14.8395C101.076 14.8395 102.629 13.2858 102.629 11.3696C102.629 9.45297 101.076 7.8997 99.1589 7.8997C97.2422 7.8997 95.689 9.45297 95.689 11.3696C95.689 13.2853 97.2422 14.8395 99.1589 14.8395Z" fill="#01A6FB"/>
<path d="M111.559 14.8395C113.476 14.8395 115.029 13.2858 115.029 11.3696C115.029 9.45297 113.476 7.8997 111.559 7.8997C109.643 7.8997 108.089 9.45297 108.089 11.3696C108.089 13.2853 109.643 14.8395 111.559 14.8395Z" fill="#01A6FB"/>
<path d="M123.959 14.8395C125.876 14.8395 127.429 13.2858 127.429 11.3696C127.429 9.45297 125.876 7.8997 123.959 7.8997C122.043 7.8997 120.489 9.45297 120.489 11.3696C120.489 13.2853 122.043 14.8395 123.959 14.8395Z" fill="#01A6FB"/>
<path d="M114.552 97.6001L105.763 107.288L130.534 129.757L139.322 120.068L114.552 97.6001Z" fill="#01A6FB"/>
<path fill-rule="evenodd" clip-rule="evenodd" d="M123.838 81.5641C123.838 101.833 107.408 118.264 87.1394 118.264C66.8706 118.264 50.4399 101.833 50.4399 81.5641C50.4399 61.2963 66.8706 44.8652 87.1394 44.8652C107.408 44.8652 123.838 61.2958 123.838 81.5641ZM118.209 81.5641C118.209 98.7234 104.299 112.634 87.1389 112.634C69.9791 112.634 56.0686 98.7239 56.0686 81.5641C56.0686 64.4048 69.9791 50.4938 87.1389 50.4938C104.299 50.4938 118.209 64.4043 118.209 81.5641Z" fill="#01A6FB"/>
<path d="M87.1396 112.634C104.299 112.634 118.21 98.7234 118.21 81.5636C118.21 64.4043 104.299 50.4933 87.1396 50.4933C69.9798 50.4933 56.0693 64.4038 56.0693 81.5636C56.0693 98.7234 69.9798 112.634 87.1396 112.634Z" fill="url(#paint13_linear_119_237)" fill-opacity="0.2"/>
<path d="M88.1668 101.952C100.23 101.952 110.008 100.507 110.008 98.7249C110.008 96.9428 100.23 95.4981 88.1668 95.4981C76.104 95.4981 66.3252 96.9428 66.3252 98.7249C66.3252 100.507 76.104 101.952 88.1668 101.952Z" fill="#E30404" fill-opacity="0.56"/>
<path d="M94.6046 81.5641L103.491 72.6587C104.323 71.7774 104.779 70.6066 104.762 69.3947C104.745 68.1823 104.256 67.0252 103.398 66.1679C102.542 65.311 101.384 64.8215 100.172 64.8048C98.9597 64.7877 97.7894 65.2435 96.9081 66.0759L88.0022 74.9818L79.1169 66.0759C78.6894 65.6235 78.1754 65.2616 77.6052 65.0107C77.0354 64.7599 76.4211 64.6268 75.7981 64.618C75.176 64.6097 74.5578 64.7256 73.9812 64.9599C73.4041 65.1936 72.8803 65.5414 72.4401 65.9815C71.9995 66.4222 71.6523 66.946 71.418 67.5231C71.1842 68.0992 71.0678 68.7174 71.0766 69.3399C71.0854 69.9625 71.219 70.5773 71.4694 71.147C71.7193 71.7168 72.0812 72.2308 72.534 72.6587L81.435 81.5641L72.534 90.47C72.0817 90.8974 71.7198 91.4114 71.4694 91.9817C71.2185 92.5515 71.0854 93.1657 71.0766 93.7888C71.0678 94.4109 71.1837 95.0291 71.418 95.6057C71.6528 96.1828 71.9995 96.7065 72.4401 97.1467C72.8803 97.5873 73.4041 97.9346 73.9812 98.1688C74.5583 98.4026 75.176 98.519 75.7981 98.5102C76.4207 98.5014 77.0354 98.3679 77.6052 98.1175C78.1754 97.8676 78.6894 97.5057 79.1169 97.0523L88.0227 88.1469L96.9281 97.0523C97.8177 97.8358 98.9719 98.251 100.157 98.2119C101.341 98.1737 102.466 97.6852 103.304 96.8454C104.14 96.0067 104.626 94.8794 104.66 93.6949C104.695 92.5109 104.277 91.3576 103.491 90.4705L94.6046 81.5641Z" fill="#D52525"/>
<path d="M64.1402 115.12L64.1485 126.371C64.149 127.062 64.708 127.621 65.398 127.622L76.6495 127.63L65.398 127.638C64.708 127.638 64.149 128.197 64.1485 128.887L64.1402 140.139L64.1323 128.887C64.1318 128.197 63.5728 127.638 62.8818 127.638L51.6309 127.63L62.8818 127.622C63.5724 127.621 64.1314 127.062 64.1323 126.371L64.1402 115.12Z" fill="url(#paint14_linear_119_237)"/>
<path d="M14.7237 0.806793L14.7315 12.0577C14.732 12.7478 15.2915 13.3073 15.9815 13.3083L27.233 13.3161L15.9815 13.3239C15.2915 13.3244 14.732 13.8844 14.7315 14.5745L14.7237 25.8254L14.7158 14.5745C14.7153 13.8844 14.1559 13.3249 13.4658 13.3239L2.21436 13.3161L13.4658 13.3083C14.1559 13.3078 14.7153 12.7478 14.7158 12.0577L14.7237 0.806793Z" fill="url(#paint15_linear_119_237)"/>
<path fill-rule="evenodd" clip-rule="evenodd" d="M65.9966 6.53961C67.1478 6.53961 68.0815 5.60648 68.0815 4.45522C68.0815 3.30396 67.1478 2.37034 65.9966 2.37034C64.8453 2.37034 63.9117 3.30396 63.9117 4.45522C63.9112 5.60697 64.8448 6.53961 65.9966 6.53961ZM65.9966 8.10365C68.0115 8.10365 69.645 6.46968 69.645 4.45522C69.645 2.43978 68.011 0.806793 65.9966 0.806793C63.9811 0.806793 62.3481 2.43978 62.3481 4.45522C62.3477 6.47017 63.9811 8.10365 65.9966 8.10365Z" fill="url(#paint16_linear_119_237)"/>
<path d="M130.825 63.949C130.627 63.1714 131.345 62.4705 132.117 62.6882L137.332 64.1534C138.105 64.3706 138.352 65.3423 137.778 65.9033L133.902 69.6862C133.327 70.2467 132.362 69.9757 132.163 69.1981L130.825 63.949Z" fill="url(#paint17_linear_119_237)"/>
<path d="M8.59161 54.9976C9.36971 54.8005 10.0691 55.519 9.85095 56.2912L8.37886 61.5037C8.16074 62.2759 7.18848 62.5224 6.6285 61.9477L2.84998 58.0665C2.29001 57.4914 2.5629 56.5264 3.34052 56.3284L8.59161 54.9976Z" fill="url(#paint18_linear_119_237)"/>
<path d="M108.021 127.039C108.799 126.842 109.498 127.56 109.28 128.332L107.809 133.545C107.59 134.318 106.618 134.564 106.058 133.989L102.28 130.108C101.72 129.533 101.993 128.568 102.77 128.371L108.021 127.039Z" fill="url(#paint19_linear_119_237)"/>
<path fill-rule="evenodd" clip-rule="evenodd" d="M135.656 36.9042C136.807 36.9042 137.741 35.971 137.741 34.8198C137.741 33.6685 136.807 32.7349 135.656 32.7349C134.504 32.7349 133.571 33.6685 133.571 34.8198C133.571 35.971 134.504 36.9042 135.656 36.9042ZM135.656 38.4682C137.671 38.4682 139.304 36.8342 139.304 34.8198C139.304 32.8044 137.67 31.1714 135.656 31.1714C133.64 31.1714 132.007 32.8044 132.007 34.8198C132.007 36.8347 133.64 38.4682 135.656 38.4682Z" fill="url(#paint20_linear_119_237)"/>
<path d="M130.532 129.758L139.32 120.069L140.643 121.27C141.927 122.434 142.697 124.062 142.781 125.794C142.865 127.525 142.259 129.22 141.094 130.504C139.929 131.789 138.301 132.558 136.569 132.643C134.838 132.727 133.143 132.12 131.859 130.955L130.535 129.755L130.532 129.758Z" fill="#01A6FB"/>
</g>
<defs>
<linearGradient id="paint0_linear_119_237" x1="68.1907" y1="-17.8585" x2="69.5892" y2="221.97" gradientUnits="userSpaceOnUse">
<stop stop-color="white" stop-opacity="0"/>
<stop offset="1" stop-color="#8EE2F4"/>
</linearGradient>
<linearGradient id="paint1_linear_119_237" x1="21.3144" y1="21.5561" x2="114.194" y2="28.1053" gradientUnits="userSpaceOnUse">
<stop stop-color="#01A6FB"/>
<stop offset="1" stop-color="#65C8DE"/>
</linearGradient>
<linearGradient id="paint2_linear_119_237" x1="18.9705" y1="68.8348" x2="152.932" y2="71.2164" gradientUnits="userSpaceOnUse">
<stop stop-color="white"/>
<stop offset="1" stop-color="#BCF3FF"/>
</linearGradient>
<linearGradient id="paint3_linear_119_237" x1="32.2808" y1="39.786" x2="104.322" y2="39.786" gradientUnits="userSpaceOnUse">
<stop stop-color="#01A6FB"/>
<stop offset="1" stop-color="#D2F7FF"/>
</linearGradient>
<linearGradient id="paint4_linear_119_237" x1="32.2808" y1="59.2526" x2="104.322" y2="59.2526" gradientUnits="userSpaceOnUse">
<stop stop-color="#01A6FB"/>
<stop offset="1" stop-color="#D2F7FF"/>
</linearGradient>
<linearGradient id="paint5_linear_119_237" x1="32.2808" y1="78.7187" x2="104.322" y2="78.7187" gradientUnits="userSpaceOnUse">
<stop stop-color="#01A6FB"/>
<stop offset="1" stop-color="#D2F7FF"/>
</linearGradient>
<linearGradient id="paint6_linear_119_237" x1="32.2808" y1="98.185" x2="104.322" y2="98.185" gradientUnits="userSpaceOnUse">
<stop stop-color="#65C8DE"/>
<stop offset="1" stop-color="#D2F7FF"/>
</linearGradient>
<linearGradient id="paint7_linear_119_237" x1="-0.139114" y1="98.3941" x2="79.9914" y2="104.975" gradientUnits="userSpaceOnUse">
<stop stop-color="white"/>
<stop offset="1" stop-color="#BCF3FF"/>
</linearGradient>
<linearGradient id="paint8_linear_119_237" x1="89.2589" y1="10.7362" x2="149.624" y2="12.4824" gradientUnits="userSpaceOnUse">
<stop stop-color="white"/>
<stop offset="1" stop-color="#BCF3FF"/>
</linearGradient>
<linearGradient id="paint9_linear_119_237" x1="38.1246" y1="96.946" x2="4.1876" y2="96.946" gradientUnits="userSpaceOnUse">
<stop stop-color="#01A6FB"/>
<stop offset="1" stop-color="#65C8DE"/>
</linearGradient>
<linearGradient id="paint10_linear_119_237" x1="38.0973" y1="118.519" x2="4.45238" y2="118.519" gradientUnits="userSpaceOnUse">
<stop stop-color="#01A6FB"/>
<stop offset="1" stop-color="#65C8DE"/>
</linearGradient>
<linearGradient id="paint11_linear_119_237" x1="38.0973" y1="107.207" x2="4.45238" y2="107.207" gradientUnits="userSpaceOnUse">
<stop stop-color="#01A6FB"/>
<stop offset="1" stop-color="#65C8DE"/>
</linearGradient>
<linearGradient id="paint12_linear_119_237" x1="29.4918" y1="83.3698" x2="5.37871" y2="83.3698" gradientUnits="userSpaceOnUse">
<stop offset="0.2438" stop-color="#01A6FB"/>
<stop offset="1" stop-color="#6BCBE0"/>
</linearGradient>
<linearGradient id="paint13_linear_119_237" x1="76.7141" y1="54.5115" x2="108.022" y2="135.753" gradientUnits="userSpaceOnUse">
<stop stop-color="white"/>
<stop offset="1" stop-color="#D2F7FF"/>
</linearGradient>
<linearGradient id="paint14_linear_119_237" x1="51.5593" y1="127.548" x2="76.7422" y2="127.711" gradientUnits="userSpaceOnUse">
<stop stop-color="#90E3F5"/>
<stop offset="1" stop-color="#65C8DE"/>
</linearGradient>
<linearGradient id="paint15_linear_119_237" x1="2.14261" y1="13.234" x2="27.3253" y2="13.3978" gradientUnits="userSpaceOnUse">
<stop stop-color="#90E3F5"/>
<stop offset="1" stop-color="#65C8DE"/>
</linearGradient>
<linearGradient id="paint16_linear_119_237" x1="62.3269" y1="4.43155" x2="69.6721" y2="4.47918" gradientUnits="userSpaceOnUse">
<stop stop-color="#90E3F5"/>
<stop offset="1" stop-color="#65C8DE"/>
</linearGradient>
<linearGradient id="paint17_linear_119_237" x1="129.708" y1="69.0095" x2="137.265" y2="61.7298" gradientUnits="userSpaceOnUse">
<stop stop-color="#90E3F5"/>
<stop offset="1" stop-color="#65C8DE"/>
</linearGradient>
<linearGradient id="paint18_linear_119_237" x1="3.53238" y1="53.8739" x2="10.8027" y2="61.44" gradientUnits="userSpaceOnUse">
<stop stop-color="#90E3F5"/>
<stop offset="1" stop-color="#65C8DE"/>
</linearGradient>
<linearGradient id="paint19_linear_119_237" x1="102.962" y1="125.915" x2="110.232" y2="133.481" gradientUnits="userSpaceOnUse">
<stop stop-color="#90E3F5"/>
<stop offset="1" stop-color="#65C8DE"/>
</linearGradient>
<linearGradient id="paint20_linear_119_237" x1="131.986" y1="34.7961" x2="139.332" y2="34.8437" gradientUnits="userSpaceOnUse">
<stop stop-color="#90E3F5"/>
<stop offset="1" stop-color="#65C8DE"/>
</linearGradient>
<clipPath id="clip0_119_237">
<rect width="142.575" height="141" fill="white"/>
</clipPath>
</defs>
</svg>
