<svg width="9" height="9" viewBox="0 0 9 9" fill="none" xmlns="http://www.w3.org/2000/svg">
<path d="M7.3125 8.25C7.46168 8.25 7.60476 8.19074 7.71025 8.08525C7.81574 7.97976 7.875 7.83668 7.875 7.6875V6.375C7.875 6.22582 7.81574 6.08274 7.71025 5.97725C7.60476 5.87176 7.46168 5.8125 7.3125 5.8125C6.87375 5.8125 6.4425 5.745 6.03 5.60625C5.93138 5.57512 5.82611 5.5716 5.72563 5.59606C5.62515 5.62051 5.53328 5.67203 5.46 5.745L4.92 6.285C3.98709 5.77591 3.22034 5.00916 2.71125 4.07625L3.2475 3.54C3.40125 3.39375 3.4575 3.17625 3.39 2.96625C3.255 2.5575 3.1875 2.12625 3.1875 1.6875C3.1875 1.53832 3.12824 1.39524 3.02275 1.28975C2.91726 1.18426 2.77418 1.125 2.625 1.125H1.3125C1.16332 1.125 1.02024 1.18426 0.914752 1.28975C0.809263 1.39524 0.75 1.53832 0.75 1.6875C0.75 5.30625 3.69375 8.25 7.3125 8.25ZM1.3125 1.5H2.625C2.67473 1.5 2.72242 1.51975 2.75758 1.55492C2.79275 1.59008 2.8125 1.63777 2.8125 1.6875C2.8125 2.1675 2.8875 2.63625 3.03375 3.0825C3.0525 3.135 3.04875 3.21 2.98875 3.27L2.25 4.005C2.86875 5.21625 3.77625 6.12375 4.99125 6.75L5.7225 6.01125C5.775 5.95875 5.84625 5.94375 5.91375 5.9625C6.36375 6.1125 6.8325 6.1875 7.3125 6.1875C7.36223 6.1875 7.40992 6.20725 7.44508 6.24242C7.48025 6.27758 7.5 6.32527 7.5 6.375V7.6875C7.5 7.73723 7.48025 7.78492 7.44508 7.82008C7.40992 7.85525 7.36223 7.875 7.3125 7.875C3.9 7.875 1.125 5.1 1.125 1.6875C1.125 1.63777 1.14475 1.59008 1.17992 1.55492C1.21508 1.51975 1.26277 1.5 1.3125 1.5Z" fill="#26292B"/>
</svg>
