<svg width="30" height="30" viewBox="0 0 30 30" fill="none" xmlns="http://www.w3.org/2000/svg">
<g opacity="0.4" clip-path="url(#clip0_88_237)">
<path d="M23.4375 2.125C22.625 1.75 21.75 1.5625 20.875 1.5625C17.4375 1.5625 14.625 4.375 14.625 7.8125C14.625 11.25 17.4375 14.0625 20.875 14.0625C24.3125 14.0625 27.125 11.25 27.125 7.8125C27.0625 5.375 25.625 3.125 23.4375 2.125ZM23.875 8.4375H21.4375V10.875H20.1875V8.4375H17.75V7.1875H20.1875V4.75H21.4375V7.1875H23.875V8.4375Z" fill="url(#paint0_linear_88_237)"/>
<path d="M26.1875 11.0625L25.1875 12.3125C25.5625 11.875 25.875 11.5 26.1875 11.0625Z" fill="url(#paint1_linear_88_237)"/>
<path d="M28.3126 9.4375L28.1876 9.3125C27.5001 12.6875 24.4376 15.25 20.8751 15.25C16.7501 15.25 13.3751 11.875 13.3751 7.75C13.3126 5 14.9376 2.5 17.2501 1.25L16.8126 0.9375C15.7501 0.125 14.3126 0.125 13.2501 0.9375L1.68758 9.4375C0.250085 10.5 -0.124916 12.625 0.812584 14.1875C1.31258 15 2.06258 15.5 2.87508 15.6875C3.06258 15.75 3.25008 15.75 3.43758 15.75C3.56258 15.75 3.68758 15.75 3.87508 15.6875V29.6875H12.0001V22.9375C12.0001 21.0625 13.3126 19.5625 15.0001 19.5625C16.6876 19.5625 18.0001 21.0625 18.0001 22.9375V29.6875H26.1251V15.6875C26.2501 15.6875 26.3751 15.75 26.5626 15.75C27.6251 15.75 28.6251 15.1875 29.2501 14.1875C30.1251 12.625 29.7501 10.5 28.3126 9.4375Z" fill="url(#paint2_linear_88_237)"/>
</g>
<defs>
<linearGradient id="paint0_linear_88_237" x1="20.875" y1="1.5625" x2="20.875" y2="14.0625" gradientUnits="userSpaceOnUse">
<stop offset="0.355" stop-color="#FF8732"/>
<stop offset="0.925" stop-color="#01A6FB"/>
</linearGradient>
<linearGradient id="paint1_linear_88_237" x1="25.6875" y1="11.0625" x2="25.6875" y2="12.3125" gradientUnits="userSpaceOnUse">
<stop offset="0.355" stop-color="#FF8732"/>
<stop offset="0.925" stop-color="#01A6FB"/>
</linearGradient>
<linearGradient id="paint2_linear_88_237" x1="15.0081" y1="0.328125" x2="15.0081" y2="29.6875" gradientUnits="userSpaceOnUse">
<stop offset="0.355" stop-color="#FF8732"/>
<stop offset="0.925" stop-color="#01A6FB"/>
</linearGradient>
<clipPath id="clip0_88_237">
<rect width="30" height="30" fill="white"/>
</clipPath>
</defs>
</svg>
