<svg width="32" height="31" viewBox="0 0 32 31" fill="none" xmlns="http://www.w3.org/2000/svg">
<path fill-rule="evenodd" clip-rule="evenodd" d="M20.7306 30.3445H0V1.45395H24.1502V13.9341C19.4225 13.9341 15.5895 17.7671 15.5895 22.4948C15.5895 26.0067 17.7049 29.0244 20.7306 30.3445ZM19.2428 2.92481H21.5883V5.27029H19.2428V2.92481ZM15.0726 2.92481H17.4181V5.27029H15.0726V2.92481ZM10.9024 2.92481H13.2479V5.27029H10.9024V2.92481ZM6.73217 2.92481H9.07765V5.27029H6.73217V2.92481ZM2.56198 2.92481H4.90746V5.27029H2.56198V2.92481ZM2.35619 9.12755H21.7941V9.83869H2.35619V9.12755ZM2.35619 12.4573H21.7941V13.1684H2.35619V12.4573ZM2.35619 22.4464H13.535V23.1576H2.35619V22.4464ZM2.35619 25.7761H14.4206V26.4873H2.35619V25.7761ZM2.35619 15.787H16.7666V16.4981H2.35619V15.787ZM2.35619 19.1167H14.1322V19.8278H2.35619V19.1167Z" fill="#B6B3B3"/>
<path fill-rule="evenodd" clip-rule="evenodd" d="M3.20166 4.27523V0H4.26832V4.27523H3.20166ZM7.37185 4.27523V0H8.43851V4.27523H7.37185ZM11.5421 4.27523V0H12.6087V4.27523H11.5421ZM15.7123 4.27523V0H16.7789V4.27523H15.7123ZM19.8825 4.27523V0H20.9491V4.27523H19.8825Z" fill="#B6B3B3"/>
<path fill-rule="evenodd" clip-rule="evenodd" d="M24.1504 14.6453C28.4856 14.6453 32 18.1597 32 22.4949C32 26.8301 28.4856 30.3445 24.1504 30.3445C19.8152 30.3445 16.3008 26.8301 16.3008 22.4949C16.3008 18.1597 19.8152 14.6453 24.1504 14.6453ZM23.4361 27.3694H24.8646V28.7979H23.4361V27.3694ZM24.8646 23.49V26.2456H23.4361V22.1307H24.1504C25.3961 22.1307 26.4055 21.1212 26.4055 19.8755C26.4055 18.6298 25.3961 17.6203 24.1504 17.6203C22.9047 17.6203 21.8952 18.6298 21.8952 19.8755V20.5898H20.4667V19.8755C20.4667 17.8413 22.1162 16.1918 24.1504 16.1918C26.1845 16.1918 27.8341 17.8413 27.8341 19.8755C27.8341 21.6653 26.557 23.1573 24.8646 23.49Z" fill="#B6B3B3"/>
</svg>
