<svg width="40" height="40" viewBox="0 0 40 40" fill="none" xmlns="http://www.w3.org/2000/svg">
<path d="M31.2951 14.9412C26.8245 10.4706 19.4127 10.3529 14.9421 14.9412C10.4715 19.4118 10.3539 26.8235 14.9421 31.2941C19.5304 35.8824 26.8245 35.7647 31.2951 31.2941C35.8833 26.7059 35.7657 19.4118 31.2951 14.9412ZM28.8245 28.8235C25.648 32 20.5892 32 17.4127 28.8235C14.2362 25.6471 14.2362 20.4706 17.4127 17.4118C20.5892 14.2353 25.648 14.2353 28.8245 17.4118C32.0009 20.5882 32.0009 25.6471 28.8245 28.8235Z" fill="white"/>
<path d="M22.1179 29.4118C21.412 29.4118 20.9414 28.9412 20.9414 28.2353C20.9414 27.5294 21.412 27.0588 22.1179 27.0588C23.2943 27.0588 24.4708 26.5882 25.2943 25.7647C26.1179 24.9412 26.5885 23.7647 26.5885 22.5882C26.5885 21.8824 27.0591 21.4118 27.7649 21.4118C28.4708 21.4118 28.9414 21.8824 28.9414 22.5882C28.9414 24.4706 28.2355 26.1176 26.9414 27.4118C25.7649 28.7059 24.0002 29.4118 22.1179 29.4118Z" fill="white"/>
<path d="M37.7647 37.7647C36.3529 39.1765 34 39.1765 32.5882 37.7647L30 35.1765C31.0588 34.5882 32 33.7647 32.9412 32.9412C33.8824 32.1176 34.5882 31.0588 35.1765 30L37.7647 32.5882C39.1765 34 39.1765 36.3529 37.7647 37.7647Z" fill="white"/>
<path d="M23.0591 9.17647C24.9415 9.17647 26.5885 9.52941 28.2356 10.1176V4.70588C28.2356 2.82353 26.7062 1.17647 24.7062 1.17647H4.70617C2.82382 1.17647 1.17676 2.82353 1.17676 4.70588V35.2941C1.17676 37.2941 2.70617 38.8235 4.70617 38.8235H24.7062C26.3532 38.8235 27.765 37.6471 28.1179 36.1176C26.5885 36.7059 24.9415 37.0588 23.1768 37.0588C19.4121 37.0588 16.0003 35.6471 13.2944 32.9412C10.7062 30.3529 9.2944 27.0588 9.17676 23.5294H7.05911C6.47088 23.5294 5.88264 23.0588 5.88264 22.3529C5.88264 21.7647 6.47088 21.1765 7.05911 21.1765H9.2944C9.41205 20.3529 9.5297 19.6471 9.88264 18.8235H7.05911C6.47088 18.8235 5.88264 18.3529 5.88264 17.6471C5.88264 17.0588 6.47088 16.4706 7.05911 16.4706H10.8238C11.2944 15.6471 11.765 14.8235 12.4709 14.1176H7.05911C6.47088 14.1176 5.88264 13.6471 5.88264 12.9412C5.88264 12.3529 6.47088 11.7647 7.05911 11.7647H15.0591C16.7062 10.5882 18.5885 9.76471 20.7062 9.41177H7.05911C6.47088 9.41177 5.88264 8.94118 5.88264 8.2353C5.88264 7.64706 6.47088 7.05883 7.05911 7.05883H22.3532C22.9415 7.05883 23.5297 7.64706 23.5297 8.2353C23.5297 8.58824 23.2944 8.94118 23.0591 9.17647Z" fill="white"/>
</svg>
