<svg width="32" height="32" viewBox="0 0 32 32" fill="none" xmlns="http://www.w3.org/2000/svg">
<path d="M14.2337 3.21017e-08C16.9064 -0.000179432 19.5252 0.752115 21.7904 2.17079C24.0555 3.58946 25.8755 5.6172 27.0421 8.02193C28.2086 10.4267 28.6746 13.1112 28.3867 15.7684C28.0987 18.4256 27.0685 20.9481 25.4139 23.0471L31.5299 29.1631C31.835 29.4789 32.0038 29.902 31.9999 30.3411C31.9961 30.7802 31.82 31.2002 31.5095 31.5107C31.199 31.8212 30.779 31.9973 30.3399 32.0011C29.9008 32.005 29.4777 31.8362 29.1619 31.5311L23.0459 25.4151C21.2631 26.8201 19.1702 27.7784 16.9417 28.21C14.7132 28.6417 12.4138 28.5341 10.2354 27.8964C8.05691 27.2586 6.06256 26.1091 4.4187 24.5438C2.77484 22.9785 1.52913 21.0428 0.785523 18.8982C0.0419114 16.7536 -0.178047 14.4622 0.143999 12.2153C0.466045 9.96835 1.32076 7.83101 2.63682 5.98159C3.95289 4.13216 5.69215 2.62428 7.7095 1.58375C9.72685 0.54321 11.9638 0.000193413 14.2337 3.21017e-08ZM14.2337 3.34938C11.3467 3.34938 8.57789 4.49625 6.53646 6.53767C4.49504 8.5791 3.34817 11.3479 3.34817 14.2349C3.34817 17.1219 4.49504 19.8907 6.53646 21.9321C8.57789 23.9735 11.3467 25.1204 14.2337 25.1204C17.1207 25.1204 19.8895 23.9735 21.9309 21.9321C23.9723 19.8907 25.1192 17.1219 25.1192 14.2349C25.1192 11.3479 23.9723 8.5791 21.9309 6.53767C19.8895 4.49625 17.1207 3.34938 14.2337 3.34938ZM14.2337 5.02408C16.6765 5.02408 19.0193 5.9945 20.7467 7.72186C22.4741 9.44922 23.4445 11.792 23.4445 14.2349C23.4445 16.6777 22.4741 19.0205 20.7467 20.7479C19.0193 22.4753 16.6765 23.4457 14.2337 23.4457C11.7908 23.4457 9.44801 22.4753 7.72065 20.7479C5.99329 19.0205 5.02287 16.6777 5.02287 14.2349C5.02287 11.792 5.99329 9.44922 7.72065 7.72186C9.44801 5.9945 11.7908 5.02408 14.2337 5.02408Z" fill="#B6B3B3"/>
</svg>
