<svg width="368" height="130" viewBox="0 0 368 130" fill="none" xmlns="http://www.w3.org/2000/svg">
<path d="M328.867 0H276.815C273.374 0 270.074 1.3669 267.641 3.8C265.208 6.23309 263.841 9.53308 263.841 12.974V117.02C263.841 124.189 269.652 130 276.815 130H328.86C332.302 130 335.602 128.633 338.037 126.2C340.471 123.767 341.839 120.468 341.841 117.026V12.974C341.841 9.53308 340.474 6.23309 338.041 3.8C335.608 1.3669 332.308 0 328.867 0ZM302.841 123.5C298.356 123.5 294.716 120.594 294.716 117C294.716 113.406 298.356 110.5 302.841 110.5C307.326 110.5 310.966 113.406 310.966 117C310.966 120.594 307.326 123.5 302.841 123.5ZM328.841 104H276.841V13H328.841V104Z" fill="#FFA500"/>
<path d="M86.6051 27.8835H12.3721C8.95564 27.8835 6.18604 30.6531 6.18604 34.0696V83.5583C6.18604 86.9747 8.95564 89.7443 12.3721 89.7443H86.6051C90.0215 89.7443 92.7911 86.9747 92.7911 83.5583V34.0696C92.7911 30.6531 90.0215 27.8835 86.6051 27.8835Z" stroke="#FEC763" stroke-opacity="0.88" stroke-width="6.18608" stroke-linejoin="round"/>
<path d="M58.7677 102.116L57.2212 89.7443H41.756L40.2095 102.116H58.7677Z" fill="#FEC763" fill-opacity="0.88" stroke="#FEC763" stroke-opacity="0.88" stroke-width="6.18608" stroke-linecap="round" stroke-linejoin="round"/>
<path d="M71.1398 102.116H27.8373" stroke="#FEC763" stroke-opacity="0.88" stroke-width="6.18608" stroke-linecap="round" stroke-linejoin="round"/>
<path d="M6.18604 74.2792V83.5583C6.19063 85.1975 6.84385 86.7683 8.00297 87.9274C9.16209 89.0866 10.7329 89.7398 12.3721 89.7444H86.6051C88.2443 89.7398 89.8151 89.0866 90.9742 87.9274C92.1333 86.7683 92.7866 85.1975 92.7911 83.5583V74.2792H6.18604ZM49.4886 86.6513C48.8768 86.6513 48.2788 86.4699 47.7702 86.1301C47.2615 85.7902 46.8651 85.3071 46.631 84.7419C46.3969 84.1768 46.3356 83.5549 46.455 82.9549C46.5743 82.3549 46.8689 81.8038 47.3015 81.3712C47.7341 80.9386 48.2852 80.644 48.8852 80.5247C49.4852 80.4053 50.1071 80.4666 50.6722 80.7007C51.2374 80.9348 51.7205 81.3312 52.0604 81.8399C52.4002 82.3485 52.5816 82.9465 52.5816 83.5583C52.5816 84.3786 52.2558 85.1653 51.6757 85.7454C51.0956 86.3255 50.3089 86.6513 49.4886 86.6513Z" fill="#FEC763" fill-opacity="0.88"/>
<path d="M103.409 46.5341C163.985 92.5469 197.947 95.0501 258.523 46.5341" stroke="#26292B" stroke-opacity="0.4" stroke-width="2.21591" stroke-dasharray="4.43 4.43"/>
<path d="M103.409 75.3409C163.985 30.2867 197.947 27.8356 258.523 75.3409" stroke="#26292B" stroke-opacity="0.4" stroke-width="2.21591" stroke-dasharray="4.43 4.43"/>
</svg>
