<svg width="24" height="24" viewBox="0 0 24 24" fill="none" xmlns="http://www.w3.org/2000/svg">
<g clip-path="url(#clip0_877_903)">
<path d="M12.3788 0C5.97749 0 0.787842 5.18965 0.787842 11.5909C0.787842 17.9922 5.97749 23.1818 12.3788 23.1818C18.78 23.1818 23.9697 17.9922 23.9697 11.5909C23.9697 5.18965 18.78 0 12.3788 0Z" fill="black"/>
<path d="M13.6468 10.5422L18.6087 4.77441H17.4329L13.1244 9.78256L9.6833 4.77441H5.71436L10.918 12.3476L5.71436 18.3961H6.89024L11.4401 13.1073L15.0742 18.3961H19.0431L13.6465 10.5422H13.6468ZM7.31392 5.65961H9.12L17.4334 17.5511H15.6273L7.31392 5.65961Z" fill="white"/>
</g>
<defs>
<clipPath id="clip0_877_903">
<rect width="23.1818" height="23.1818" fill="white" transform="translate(0.787842)"/>
</clipPath>
</defs>
</svg>
