<svg width="80" height="80" viewBox="0 0 80 80" fill="none" xmlns="http://www.w3.org/2000/svg">
<path d="M63.9416 14.3582H14.6829C10.5888 14.3582 7.24753 17.6995 7.24753 21.7936V59.0759C4.44738 58.4523 2.35352 55.9583 2.35352 52.9583V15.7346C2.35352 12.264 5.15338 9.46418 8.62391 9.46418H57.8122C60.8123 9.46418 63.318 11.558 63.9416 14.3582Z" fill="#019EEE"/>
<path d="M43.5238 30.8049C42.4697 30.8049 41.4793 31.2783 40.8078 32.1043C40.1299 32.9379 39.8686 34.0299 40.0915 35.1007C40.3718 36.5035 41.5569 37.63 42.974 37.8454C44.0316 37.9999 45.0507 37.7127 45.8451 37.0274C46.6287 36.3524 47.0779 35.3747 47.0779 34.3441C47.0779 32.3927 45.4838 30.8049 43.5238 30.8049Z" fill="#019EEE"/>
<path d="M63.4894 21.1318H15.0852C14.6394 21.1318 14.2764 21.4949 14.2764 21.9406V58.6574L31.7402 38.7588C32.298 38.1228 33.1068 37.7845 33.953 37.8006C34.8037 37.8281 35.5896 38.2308 36.1083 38.9052L42.3095 47.0492C42.6024 47.4341 43.0287 47.665 43.5083 47.6989C43.9903 47.7316 44.4516 47.5587 44.7928 47.2215L48.7192 43.2837C49.3028 42.7069 50.1036 42.4094 50.9141 42.4657C51.7241 42.5208 52.472 42.9212 52.9666 43.5646L54.6279 45.7305C57.1905 43.5712 60.4933 42.264 64.0989 42.264C64.1661 42.264 64.231 42.2732 64.2982 42.2741V21.9406C64.2982 21.4949 63.9351 21.1318 63.4894 21.1318ZM46.6132 37.9189C45.751 38.6617 44.6515 39.0621 43.5164 39.0621C43.278 39.0621 43.0384 39.0443 42.7989 39.0086C40.9003 38.7208 39.3137 37.21 38.9386 35.3356C38.6445 33.9208 38.9932 32.4708 39.8951 31.3622C40.7912 30.2604 42.1141 29.6285 43.5238 29.6285C46.1324 29.6285 48.2544 31.7442 48.2544 34.3441C48.2544 35.7171 47.6564 37.0199 46.6132 37.9189Z" fill="#019EEE"/>
<path d="M49.9122 60.8756H15.0885C14.9644 60.8756 14.8429 60.8589 14.7232 60.8365C14.7105 60.8342 14.697 60.8351 14.6844 60.8325C14.612 60.8176 14.5439 60.79 14.4739 60.767C14.4156 60.7481 14.3555 60.734 14.2998 60.7099C14.2355 60.682 14.1769 60.6444 14.1157 60.6099C14.0608 60.5786 14.004 60.5505 13.9523 60.5146C13.898 60.4764 13.8494 60.4313 13.7989 60.3876C13.746 60.3425 13.6938 60.2983 13.6461 60.2477C13.6317 60.2325 13.6139 60.2216 13.6001 60.2058C13.5869 60.1909 13.5817 60.1722 13.5703 60.1564C13.281 59.8111 13.0998 59.3726 13.0998 58.888V21.9406C13.0998 20.8457 13.9902 19.9553 15.0851 19.9553H63.4893C64.5842 19.9553 65.4745 20.8457 65.4745 21.9406V42.3338C67.1321 42.4881 68.7058 42.9244 70.1589 43.5841V21.7993C70.1589 18.3337 67.3455 15.5321 63.8802 15.5321H14.6878C11.2222 15.5321 8.4209 18.3337 8.4209 21.7993V59.0259C8.4209 62.4907 11.2222 65.2925 14.6878 65.2925H51.9503C51.0378 63.9615 50.3499 62.4706 49.9122 60.8756Z" fill="#019EEE"/>
<path d="M49.6345 59.6968C49.4702 58.8176 49.374 57.9146 49.374 56.9883C49.374 52.8985 51.0525 49.1956 53.7536 46.5247L52.0325 44.2809C51.7441 43.9058 51.307 43.672 50.8336 43.6393C50.354 43.6083 49.8887 43.7806 49.5486 44.1178L45.6222 48.0556C45.0369 48.6335 44.2384 48.9288 43.425 48.8725C42.6144 48.8151 41.8665 48.4106 41.3725 47.7615L35.173 39.6199C34.8714 39.2281 34.4119 38.9926 33.9138 38.9765C33.4238 38.9661 32.9488 39.1637 32.6242 39.5343L14.9521 59.6698C14.997 59.6779 15.0375 59.6968 15.0846 59.6968H49.6345Z" fill="#019EEE"/>
<path d="M64.8187 49.3413C64.4172 48.9403 63.764 48.9409 63.3636 49.3407L58.517 54.1879C58.3223 54.3826 58.2148 54.644 58.2148 54.9232C58.2148 55.2023 58.3223 55.4631 58.517 55.6579C58.9065 56.0474 59.5815 56.0474 59.9709 55.6579L62.0619 53.5675C62.1745 53.4549 62.325 53.3951 62.4778 53.3951C62.5537 53.3951 62.6301 53.4095 62.703 53.4399C62.923 53.5307 63.0661 53.7455 63.0661 53.9834V63.9041C63.0661 64.4831 63.5199 64.937 64.0989 64.937C64.6682 64.937 65.1318 64.4734 65.1318 63.9041V53.9834C65.1318 53.745 65.2754 53.5301 65.496 53.4394C65.716 53.3486 65.9699 53.3997 66.1376 53.5692L68.2125 55.6596C68.6112 56.0376 69.2632 56.0502 69.6866 55.6527C70.0864 55.2472 70.0847 54.5917 69.6814 54.1879L64.8187 49.3413Z" fill="#019EEE"/>
<path d="M64.0993 43.4405C56.6171 43.4405 50.5518 49.5061 50.5518 56.9883C50.5518 64.4705 56.6171 70.5358 64.0993 70.5358C71.5815 70.5358 77.6471 64.4705 77.6471 56.9883C77.6471 49.5061 71.5815 43.4405 64.0993 43.4405ZM70.5136 56.4897C70.5101 56.4931 70.5067 56.4966 70.5032 56.5C69.6473 57.3157 68.2485 57.3169 67.3903 56.5L66.3086 55.4109V63.9041C66.3086 65.1225 65.3177 66.1134 64.0993 66.1134C62.8809 66.1134 61.8899 65.1225 61.8899 63.9041V55.4034L60.8031 56.4897C59.969 57.3238 58.5185 57.3238 57.6855 56.4897C57.2685 56.0732 57.0387 55.5166 57.0387 54.9232C57.0387 54.3298 57.2685 53.7731 57.6855 53.3561L62.5322 48.5089C63.3915 47.6495 64.7909 47.6495 65.6503 48.5089L70.513 53.3555C71.3775 54.2206 71.377 55.6263 70.5136 56.4897Z" fill="#019EEE"/>
</svg>
