<svg width="45" height="45" viewBox="0 0 45 45" fill="none" xmlns="http://www.w3.org/2000/svg">
<g clip-path="url(#clip0_138_724)">
<path d="M22.5 45C34.9264 45 45 34.9264 45 22.5C45 10.0736 34.9264 0 22.5 0C10.0736 0 0 10.0736 0 22.5C0 34.9264 10.0736 45 22.5 45Z" fill="#29A71A"/>
<path d="M32.4206 12.5796C30.0797 10.2153 26.9709 8.76534 23.6551 8.49128C20.3392 8.21722 17.0346 9.13709 14.3373 11.085C11.6399 13.0328 9.72745 15.8805 8.94478 19.1143C8.16211 22.348 8.56079 25.7551 10.0689 28.7208L8.5885 35.908C8.57314 35.9795 8.5727 36.0535 8.58722 36.1252C8.60174 36.1969 8.6309 36.2648 8.67287 36.3248C8.73437 36.4157 8.82214 36.4857 8.92448 36.5255C9.02682 36.5652 9.13884 36.5728 9.2456 36.5472L16.2896 34.8776C19.247 36.3475 22.63 36.7206 25.8366 35.9303C29.0432 35.1401 31.8654 33.2379 33.8012 30.5621C35.7369 27.8863 36.6605 24.6106 36.4077 21.3177C36.1549 18.0249 34.7421 14.9285 32.4206 12.5796ZM30.2243 30.1091C28.6046 31.7243 26.5189 32.7904 24.2612 33.1574C22.0034 33.5244 19.6875 33.1736 17.6396 32.1546L16.6578 31.6688L12.3394 32.6915L12.3521 32.6378L13.247 28.2912L12.7663 27.3426C11.72 25.2877 11.3509 22.9542 11.7119 20.6766C12.0729 18.399 13.1455 16.2941 14.776 14.6634C16.8248 12.6152 19.6032 11.4646 22.5001 11.4646C25.3971 11.4646 28.1755 12.6152 30.2243 14.6634C30.2417 14.6834 30.2605 14.7022 30.2805 14.7196C32.3039 16.7731 33.4335 19.5432 33.423 22.426C33.4124 25.3088 32.2626 28.0705 30.2243 30.1091Z" fill="white"/>
<path d="M29.8407 26.9207C29.3114 27.7542 28.4753 28.7744 27.4245 29.0275C25.5836 29.4724 22.7583 29.0429 19.2427 25.765L19.1992 25.7267C16.108 22.8605 15.3052 20.475 15.4995 18.5829C15.6069 17.509 16.5017 16.5375 17.256 15.9034C17.3753 15.8016 17.5167 15.7291 17.6689 15.6918C17.8212 15.6544 17.9801 15.6532 18.1329 15.6883C18.2857 15.7233 18.4282 15.7936 18.549 15.8935C18.6697 15.9935 18.7655 16.1203 18.8285 16.2639L19.9662 18.8207C20.0402 18.9865 20.0676 19.1693 20.0455 19.3494C20.0234 19.5296 19.9527 19.7004 19.841 19.8434L19.2657 20.59C19.1422 20.7442 19.0677 20.9317 19.0518 21.1286C19.0358 21.3254 19.0792 21.5225 19.1762 21.6946C19.4983 22.2596 20.2705 23.0906 21.127 23.8602C22.0884 24.7295 23.1546 25.5247 23.8296 25.7957C24.0102 25.8695 24.2088 25.8875 24.3997 25.8474C24.5907 25.8073 24.7652 25.7109 24.9009 25.5707L25.5682 24.8982C25.697 24.7713 25.8571 24.6807 26.0323 24.6358C26.2075 24.5909 26.3914 24.5932 26.5654 24.6426L29.2679 25.4096C29.417 25.4553 29.5537 25.5346 29.6674 25.6412C29.7812 25.7478 29.8691 25.8791 29.9243 26.0249C29.9796 26.1707 30.0008 26.3272 29.9863 26.4825C29.9718 26.6378 29.922 26.7876 29.8407 26.9207Z" fill="white"/>
</g>
<defs>
<clipPath id="clip0_138_724">
<rect width="45" height="45" fill="white"/>
</clipPath>
</defs>
</svg>
