<svg width="45" height="45" viewBox="0 0 45 45" fill="none" xmlns="http://www.w3.org/2000/svg">
<g clip-path="url(#clip0_138_731)">
<path d="M22.5 0C10.074 0 0 10.074 0 22.5C0 34.926 10.074 45 22.5 45C34.926 45 45 34.926 45 22.5C45 10.074 34.926 0 22.5 0Z" fill="black"/>
<path d="M24.9617 20.4638L34.5937 9.26746H32.3112L23.9477 18.9891L17.2679 9.26746H9.56348L19.6647 23.9683L9.56348 35.7095H11.8461L20.6781 25.4431L27.7325 35.7095H35.4369L24.9611 20.4638H24.9617ZM12.6685 10.9858H16.1744L32.3122 34.0693H28.8063L12.6685 10.9858Z" fill="white"/>
</g>
<defs>
<clipPath id="clip0_138_731">
<rect width="45" height="45" fill="white"/>
</clipPath>
</defs>
</svg>
