<svg width="216" height="93" viewBox="0 0 216 93" fill="none" xmlns="http://www.w3.org/2000/svg">
<circle cx="169" cy="46.5" r="46.5" fill="#FF8732"/>
<circle cx="160.952" cy="44.7115" r="36.6635" fill="#FFF2E9" fill-opacity="0.2"/>
<path d="M1.8 63V56.655L17.595 38.88H2.34V31.5H29.655V37.845L13.86 55.62H29.655V63H1.8ZM40.6909 63.54C36.0559 63.54 32.5009 60.885 32.5009 56.025V55.935C32.5009 50.895 36.3259 48.285 42.0409 48.285C44.2909 48.285 46.4959 48.735 47.8909 49.23V48.825C47.8909 46.305 46.3159 44.865 43.0309 44.865C40.4659 44.865 38.4859 45.36 36.3259 46.215L34.5709 40.185C37.3159 39.06 40.2409 38.295 44.4259 38.295C48.7909 38.295 51.7609 39.33 53.6959 41.265C55.5409 43.065 56.3059 45.585 56.3059 49.005V63H47.8459V60.48C46.1809 62.325 43.8859 63.54 40.6909 63.54ZM43.7509 58.185C46.2259 58.185 47.9809 56.61 47.9809 54.18V53.055C47.1259 52.695 45.9109 52.425 44.6509 52.425C42.1759 52.425 40.7359 53.64 40.7359 55.44V55.53C40.7359 57.195 41.9959 58.185 43.7509 58.185ZM122.636 63.585C114.986 63.585 109.586 58.5 109.586 50.94V50.85C109.586 43.74 114.671 38.115 121.871 38.115C130.286 38.115 134.156 44.28 134.156 51.435C134.156 51.975 134.156 52.605 134.111 53.19H117.821C118.496 55.845 120.431 57.195 123.086 57.195C125.111 57.195 126.731 56.43 128.486 54.72L133.211 58.635C130.871 61.605 127.496 63.585 122.636 63.585ZM117.686 48.825H126.146C125.831 46.125 124.256 44.415 121.916 44.415C119.666 44.415 118.136 46.17 117.686 48.825ZM138.002 63V30.15H146.552V63H138.002ZM151.494 63V30.15H160.044V63H151.494ZM171.78 63.54C167.145 63.54 163.59 60.885 163.59 56.025V55.935C163.59 50.895 167.415 48.285 173.13 48.285C175.38 48.285 177.585 48.735 178.98 49.23V48.825C178.98 46.305 177.405 44.865 174.12 44.865C171.555 44.865 169.575 45.36 167.415 46.215L165.66 40.185C168.405 39.06 171.33 38.295 175.515 38.295C179.88 38.295 182.85 39.33 184.785 41.265C186.63 43.065 187.395 45.585 187.395 49.005V63H178.935V60.48C177.27 62.325 174.975 63.54 171.78 63.54ZM174.84 58.185C177.315 58.185 179.07 56.61 179.07 54.18V53.055C178.215 52.695 177 52.425 175.74 52.425C173.265 52.425 171.825 53.64 171.825 55.44V55.53C171.825 57.195 173.085 58.185 174.84 58.185Z" fill="#01A6FB"/>
<path d="M60.875 62.125H108.125M66.125 62.125V25.375L87.125 14.875V62.125M102.875 62.125V35.875L87.125 25.375M76.625 30.625V30.6513M76.625 38.5V38.5263M76.625 46.375V46.4013M76.625 54.25V54.2763" stroke="#01A6FB" stroke-width="5.25" stroke-linecap="round" stroke-linejoin="round"/>
</svg>
