<svg width="215" height="93" viewBox="0 0 215 93" fill="none" xmlns="http://www.w3.org/2000/svg">
<circle cx="168.5" cy="46.5" r="46.5" fill="#FF8732"/>
<path d="M1.8 60V53.655L17.595 35.88H2.34V28.5H29.655V34.845L13.86 52.62H29.655V60H1.8ZM40.6909 60.54C36.0559 60.54 32.5009 57.885 32.5009 53.025V52.935C32.5009 47.895 36.3259 45.285 42.0409 45.285C44.2909 45.285 46.4959 45.735 47.8909 46.23V45.825C47.8909 43.305 46.3159 41.865 43.0309 41.865C40.4659 41.865 38.4859 42.36 36.3259 43.215L34.5709 37.185C37.3159 36.06 40.2409 35.295 44.4259 35.295C48.7909 35.295 51.7609 36.33 53.6959 38.265C55.5409 40.065 56.3059 42.585 56.3059 46.005V60H47.8459V57.48C46.1809 59.325 43.8859 60.54 40.6909 60.54ZM43.7509 55.185C46.2259 55.185 47.9809 53.61 47.9809 51.18V50.055C47.1259 49.695 45.9109 49.425 44.6509 49.425C42.1759 49.425 40.7359 50.64 40.7359 52.44V52.53C40.7359 54.195 41.9959 55.185 43.7509 55.185ZM122.636 60.585C114.986 60.585 109.586 55.5 109.586 47.94V47.85C109.586 40.74 114.671 35.115 121.871 35.115C130.286 35.115 134.156 41.28 134.156 48.435C134.156 48.975 134.156 49.605 134.111 50.19H117.821C118.496 52.845 120.431 54.195 123.086 54.195C125.111 54.195 126.731 53.43 128.486 51.72L133.211 55.635C130.871 58.605 127.496 60.585 122.636 60.585ZM117.686 45.825H126.146C125.831 43.125 124.256 41.415 121.916 41.415C119.666 41.415 118.136 43.17 117.686 45.825ZM138.002 60V27.15H146.552V60H138.002ZM151.494 60V27.15H160.044V60H151.494ZM171.78 60.54C167.145 60.54 163.59 57.885 163.59 53.025V52.935C163.59 47.895 167.415 45.285 173.13 45.285C175.38 45.285 177.585 45.735 178.98 46.23V45.825C178.98 43.305 177.405 41.865 174.12 41.865C171.555 41.865 169.575 42.36 167.415 43.215L165.66 37.185C168.405 36.06 171.33 35.295 175.515 35.295C179.88 35.295 182.85 36.33 184.785 38.265C186.63 40.065 187.395 42.585 187.395 46.005V60H178.935V57.48C177.27 59.325 174.975 60.54 171.78 60.54ZM174.84 55.185C177.315 55.185 179.07 53.61 179.07 51.18V50.055C178.215 49.695 177 49.425 175.74 49.425C173.265 49.425 171.825 50.64 171.825 52.44V52.53C171.825 54.195 173.085 55.185 174.84 55.185Z" fill="white"/>
<path d="M59.875 59.125H107.125M65.125 59.125V22.375L86.125 11.875V59.125M101.875 59.125V32.875L86.125 22.375M75.625 27.625V27.6513M75.625 35.5V35.5263M75.625 43.375V43.4013M75.625 51.25V51.2763" stroke="white" stroke-width="5.25" stroke-linecap="round" stroke-linejoin="round"/>
<circle cx="159.663" cy="46.6635" r="36.6635" fill="#FFF2E9" fill-opacity="0.2"/>
</svg>
